<svg width="1920" height="849" viewBox="0 0 1920 849" fill="none" xmlns="http://www.w3.org/2000/svg">
<g clip-path="url(#clip0_1_9)">
<rect width="1920" height="849" fill="white"/>
<rect width="1920" height="849" fill="#202249"/>
<path fill-rule="evenodd" clip-rule="evenodd" d="M0 691.948L32 688.209C64 684.469 128 676.991 192 691.948C256 706.905 320 744.299 384 770.474C448 796.649 512 811.607 576 822.825C640 834.043 704 841.521 768 830.303C832 819.085 896 789.171 960 766.735C1024 744.299 1088 729.341 1152 736.82C1216 744.299 1280 774.213 1344 774.213C1408 774.213 1472 744.299 1536 736.82C1600 729.341 1664 744.299 1728 755.517C1792 766.735 1856 774.213 1888 777.953L1920 781.692V849H1888C1856 849 1792 849 1728 849C1664 849 1600 849 1536 849C1472 849 1408 849 1344 849C1280 849 1216 849 1152 849C1088 849 1024 849 960 849C896 849 832 849 768 849C704 849 640 849 576 849C512 849 448 849 384 849C320 849 256 849 192 849C128 849 64 849 32 849H0V691.948Z" fill="white"/>
<path fill-rule="evenodd" clip-rule="evenodd" d="M0 692.894L32 689.177C64 685.461 128 678.027 192 692.894C256 707.761 320 744.929 384 770.947C448 796.965 512 811.832 576 822.982C640 834.133 704 841.566 768 830.416C832 819.266 896 789.531 960 767.23C1024 744.929 1088 730.062 1152 737.496C1216 744.929 1280 774.664 1344 774.664C1408 774.664 1472 744.929 1536 737.496C1600 730.062 1664 744.929 1728 756.08C1792 767.23 1856 774.664 1888 778.381L1920 782.098V849H1888C1856 849 1792 849 1728 849C1664 849 1600 849 1536 849C1472 849 1408 849 1344 849C1280 849 1216 849 1152 849C1088 849 1024 849 960 849C896 849 832 849 768 849C704 849 640 849 576 849C512 849 448 849 384 849C320 849 256 849 192 849C128 849 64 849 32 849H0V692.894Z" fill="#FF6600" fill-opacity="0.5"/>
<path fill-rule="evenodd" clip-rule="evenodd" d="M0 749.66L32 747.295C64 744.929 128 740.199 192 749.66C256 759.121 320 782.773 384 799.33C448 815.887 512 825.348 576 832.443C640 839.539 704 844.27 768 837.174C832 830.078 896 811.156 960 796.965C1024 782.773 1088 773.312 1152 778.043C1216 782.773 1280 801.695 1344 801.695C1408 801.695 1472 782.773 1536 778.043C1600 773.312 1664 782.773 1728 789.869C1792 796.965 1856 801.695 1888 804.06L1920 806.426V849H1888C1856 849 1792 849 1728 849C1664 849 1600 849 1536 849C1472 849 1408 849 1344 849C1280 849 1216 849 1152 849C1088 849 1024 849 960 849C896 849 832 849 768 849C704 849 640 849 576 849C512 849 448 849 384 849C320 849 256 849 192 849C128 849 64 849 32 849H0V749.66Z" fill="white"/>
</g>
<defs>
<clipPath id="clip0_1_9">
<rect width="1920" height="849" fill="white"/>
</clipPath>
</defs>
</svg>
