<svg width="1108" height="566" viewBox="0 0 1108 566" fill="none" xmlns="http://www.w3.org/2000/svg">
<g clip-path="url(#clip0_21_22)" filter="url(#filter0_d_21_22)">
<rect width="1072" height="530" transform="translate(18 6)" fill="white"/>
<rect x="196" y="45" width="646" height="86" rx="9" fill="#FF6701"/>
<path d="M371.24 104V80.96H378.696C378.877 80.96 379.251 80.9653 379.816 80.976C380.381 80.9867 380.925 81.024 381.448 81.088C383.304 81.312 384.877 81.9573 386.168 83.024C387.459 84.0907 388.44 85.4453 389.112 87.088C389.784 88.7307 390.12 90.528 390.12 92.48C390.12 94.432 389.784 96.2293 389.112 97.872C388.44 99.5147 387.459 100.869 386.168 101.936C384.877 103.003 383.304 103.648 381.448 103.872C380.925 103.936 380.381 103.973 379.816 103.984C379.251 103.995 378.877 104 378.696 104H371.24ZM375.656 99.904H378.696C378.984 99.904 379.373 99.8987 379.864 99.888C380.355 99.8667 380.797 99.8187 381.192 99.744C382.195 99.5413 383.011 99.072 383.64 98.336C384.28 97.6 384.749 96.7147 385.048 95.68C385.357 94.6453 385.512 93.5787 385.512 92.48C385.512 91.328 385.352 90.2347 385.032 89.2C384.723 88.1653 384.248 87.2907 383.608 86.576C382.968 85.8613 382.163 85.408 381.192 85.216C380.797 85.1307 380.355 85.0827 379.864 85.072C379.373 85.0613 378.984 85.056 378.696 85.056H375.656V99.904ZM393.959 104V80.96H403.175C404.817 80.96 406.145 81.2907 407.159 81.952C408.172 82.6027 408.913 83.424 409.383 84.416C409.852 85.408 410.087 86.4107 410.087 87.424C410.087 88.7147 409.793 89.7867 409.207 90.64C408.631 91.4933 407.836 92.064 406.823 92.352V91.552C408.263 91.8507 409.34 92.5173 410.055 93.552C410.78 94.5867 411.143 95.744 411.143 97.024C411.143 98.4 410.887 99.6107 410.375 100.656C409.873 101.701 409.105 102.523 408.071 103.12C407.036 103.707 405.735 104 404.167 104H393.959ZM398.375 99.904H403.719C404.305 99.904 404.828 99.7813 405.287 99.536C405.745 99.28 406.103 98.928 406.359 98.48C406.625 98.0213 406.759 97.4827 406.759 96.864C406.759 96.32 406.647 95.8347 406.423 95.408C406.199 94.9813 405.857 94.6453 405.399 94.4C404.951 94.144 404.391 94.016 403.719 94.016H398.375V99.904ZM398.375 89.952H403.111C403.601 89.952 404.039 89.8667 404.423 89.696C404.807 89.5253 405.111 89.264 405.335 88.912C405.559 88.5493 405.671 88.0853 405.671 87.52C405.671 86.816 405.452 86.224 405.015 85.744C404.577 85.264 403.943 85.024 403.111 85.024H398.375V89.952ZM414.334 104V80.96H418.238L425.854 96.256L433.47 80.96H437.374V104H433.31V90.24L426.622 104H425.086L418.398 90.24V104H414.334ZM450.569 104.48C448.862 104.48 447.321 104.181 445.945 103.584C444.58 102.976 443.454 102.112 442.569 100.992C441.694 99.8613 441.14 98.5173 440.905 96.96L445.449 96.288C445.769 97.6107 446.43 98.6293 447.433 99.344C448.436 100.059 449.577 100.416 450.857 100.416C451.572 100.416 452.265 100.304 452.937 100.08C453.609 99.856 454.158 99.5253 454.585 99.088C455.022 98.6507 455.241 98.112 455.241 97.472C455.241 97.2373 455.204 97.0133 455.129 96.8C455.065 96.576 454.953 96.368 454.793 96.176C454.633 95.984 454.404 95.8027 454.105 95.632C453.817 95.4613 453.449 95.3067 453.001 95.168L447.017 93.408C446.569 93.28 446.046 93.0987 445.449 92.864C444.862 92.6293 444.292 92.2933 443.737 91.856C443.182 91.4187 442.718 90.8427 442.345 90.128C441.982 89.4027 441.801 88.4907 441.801 87.392C441.801 85.8453 442.19 84.56 442.969 83.536C443.748 82.512 444.788 81.7493 446.089 81.248C447.39 80.7467 448.83 80.5013 450.409 80.512C451.998 80.5333 453.417 80.8053 454.665 81.328C455.913 81.8507 456.958 82.6133 457.801 83.616C458.644 84.608 459.252 85.824 459.625 87.264L454.921 88.064C454.75 87.3173 454.436 86.688 453.977 86.176C453.518 85.664 452.969 85.2747 452.329 85.008C451.7 84.7413 451.038 84.5973 450.345 84.576C449.662 84.5547 449.017 84.6507 448.409 84.864C447.812 85.0667 447.321 85.3653 446.937 85.76C446.564 86.1547 446.377 86.624 446.377 87.168C446.377 87.6693 446.532 88.08 446.841 88.4C447.15 88.7093 447.54 88.96 448.009 89.152C448.478 89.344 448.958 89.504 449.449 89.632L453.449 90.72C454.046 90.88 454.708 91.0933 455.433 91.36C456.158 91.616 456.852 91.9787 457.513 92.448C458.185 92.9067 458.734 93.5147 459.161 94.272C459.598 95.0293 459.817 95.9893 459.817 97.152C459.817 98.3893 459.556 99.472 459.033 100.4C458.521 101.317 457.828 102.08 456.953 102.688C456.078 103.285 455.086 103.733 453.977 104.032C452.878 104.331 451.742 104.48 450.569 104.48ZM468.14 104L475.18 80.96H481.676L488.716 104H484.236L477.964 83.68H478.796L472.62 104H468.14ZM472.364 99.2V95.136H484.524V99.2H472.364ZM491.584 104V86.72H495.424V90.944L495.008 90.4C495.232 89.8027 495.53 89.2587 495.904 88.768C496.277 88.2773 496.736 87.872 497.28 87.552C497.696 87.296 498.149 87.0987 498.64 86.96C499.13 86.8107 499.637 86.72 500.16 86.688C500.682 86.6453 501.205 86.656 501.728 86.72V90.784C501.248 90.6347 500.688 90.5867 500.048 90.64C499.418 90.6827 498.848 90.8267 498.336 91.072C497.824 91.3067 497.392 91.6213 497.04 92.016C496.688 92.4 496.421 92.8587 496.24 93.392C496.058 93.9147 495.968 94.5067 495.968 95.168V104H491.584ZM512.075 104.48C510.283 104.48 508.747 104.08 507.467 103.28C506.187 102.48 505.205 101.392 504.523 100.016C503.84 98.64 503.499 97.088 503.499 95.36C503.499 93.6107 503.851 92.048 504.555 90.672C505.269 89.296 506.272 88.2133 507.563 87.424C508.853 86.6347 510.379 86.24 512.139 86.24C514.176 86.24 515.883 86.7573 517.259 87.792C518.645 88.816 519.531 90.2187 519.915 92L515.563 93.152C515.307 92.256 514.859 91.5573 514.219 91.056C513.589 90.5547 512.875 90.304 512.075 90.304C511.157 90.304 510.405 90.528 509.819 90.976C509.232 91.4133 508.8 92.016 508.523 92.784C508.245 93.5413 508.107 94.4 508.107 95.36C508.107 96.864 508.437 98.0853 509.099 99.024C509.771 99.952 510.763 100.416 512.075 100.416C513.056 100.416 513.803 100.192 514.315 99.744C514.827 99.296 515.211 98.656 515.467 97.824L519.915 98.752C519.424 100.587 518.496 102 517.131 102.992C515.765 103.984 514.08 104.48 512.075 104.48ZM534.891 104V95.84C534.891 95.4453 534.87 94.944 534.827 94.336C534.784 93.7173 534.651 93.0987 534.427 92.48C534.203 91.8613 533.835 91.344 533.323 90.928C532.822 90.512 532.107 90.304 531.179 90.304C530.806 90.304 530.406 90.3627 529.979 90.48C529.552 90.5973 529.152 90.8267 528.779 91.168C528.406 91.4987 528.096 91.9893 527.851 92.64C527.616 93.2907 527.499 94.1547 527.499 95.232L525.003 94.048C525.003 92.6827 525.28 91.4027 525.835 90.208C526.39 89.0133 527.222 88.048 528.331 87.312C529.451 86.576 530.859 86.208 532.555 86.208C533.91 86.208 535.014 86.4373 535.867 86.896C536.72 87.3547 537.382 87.936 537.851 88.64C538.331 89.344 538.672 90.08 538.875 90.848C539.078 91.6053 539.2 92.2987 539.243 92.928C539.286 93.5573 539.307 94.016 539.307 94.304V104H534.891ZM523.083 104V80.96H526.955V92.8H527.499V104H523.083ZM543.779 84.32V80.48H548.131V84.32H543.779ZM543.779 104V86.72H548.131V104H543.779ZM563.296 104C562.101 104.224 560.928 104.32 559.776 104.288C558.634 104.267 557.61 104.069 556.704 103.696C555.808 103.312 555.125 102.699 554.656 101.856C554.229 101.067 554.005 100.267 553.984 99.456C553.962 98.6347 553.952 97.7067 553.952 96.672V81.92H558.304V96.416C558.304 97.088 558.309 97.696 558.32 98.24C558.341 98.7733 558.453 99.2 558.656 99.52C559.04 100.128 559.653 100.459 560.496 100.512C561.338 100.565 562.272 100.523 563.296 100.384V104ZM551.008 90.08V86.72H563.296V90.08H551.008ZM574.241 104.48C572.47 104.48 570.907 104.101 569.553 103.344C568.209 102.576 567.153 101.525 566.385 100.192C565.627 98.848 565.249 97.312 565.249 95.584C565.249 93.696 565.622 92.0533 566.369 90.656C567.115 89.2587 568.145 88.176 569.457 87.408C570.769 86.6293 572.278 86.24 573.985 86.24C575.798 86.24 577.339 86.6667 578.609 87.52C579.878 88.3733 580.817 89.5733 581.425 91.12C582.033 92.6667 582.246 94.4853 582.065 96.576H577.761V94.976C577.761 93.216 577.478 91.952 576.913 91.184C576.358 90.4053 575.446 90.016 574.177 90.016C572.694 90.016 571.601 90.4693 570.897 91.376C570.203 92.272 569.857 93.6 569.857 95.36C569.857 96.9707 570.203 98.2187 570.897 99.104C571.601 99.9787 572.63 100.416 573.985 100.416C574.838 100.416 575.569 100.229 576.177 99.856C576.785 99.4827 577.249 98.944 577.569 98.24L581.921 99.488C581.27 101.067 580.241 102.293 578.833 103.168C577.435 104.043 575.905 104.48 574.241 104.48ZM568.513 96.576V93.344H579.969V96.576H568.513ZM593.294 104.48C591.502 104.48 589.966 104.08 588.686 103.28C587.406 102.48 586.424 101.392 585.742 100.016C585.059 98.64 584.718 97.088 584.718 95.36C584.718 93.6107 585.07 92.048 585.774 90.672C586.488 89.296 587.491 88.2133 588.782 87.424C590.072 86.6347 591.598 86.24 593.358 86.24C595.395 86.24 597.102 86.7573 598.478 87.792C599.864 88.816 600.75 90.2187 601.134 92L596.782 93.152C596.526 92.256 596.078 91.5573 595.438 91.056C594.808 90.5547 594.094 90.304 593.294 90.304C592.376 90.304 591.624 90.528 591.038 90.976C590.451 91.4133 590.019 92.016 589.742 92.784C589.464 93.5413 589.326 94.4 589.326 95.36C589.326 96.864 589.656 98.0853 590.318 99.024C590.99 99.952 591.982 100.416 593.294 100.416C594.275 100.416 595.022 100.192 595.534 99.744C596.046 99.296 596.43 98.656 596.686 97.824L601.134 98.752C600.643 100.587 599.715 102 598.35 102.992C596.984 103.984 595.299 104.48 593.294 104.48ZM614.702 104C613.507 104.224 612.334 104.32 611.182 104.288C610.04 104.267 609.016 104.069 608.11 103.696C607.214 103.312 606.531 102.699 606.062 101.856C605.635 101.067 605.411 100.267 605.39 99.456C605.368 98.6347 605.358 97.7067 605.358 96.672V81.92H609.71V96.416C609.71 97.088 609.715 97.696 609.726 98.24C609.747 98.7733 609.859 99.2 610.062 99.52C610.446 100.128 611.059 100.459 611.902 100.512C612.744 100.565 613.678 100.523 614.702 100.384V104ZM602.414 90.08V86.72H614.702V90.08H602.414ZM624.985 104.512C623.63 104.512 622.526 104.283 621.673 103.824C620.819 103.365 620.153 102.784 619.673 102.08C619.203 101.376 618.867 100.645 618.664 99.888C618.462 99.12 618.339 98.4213 618.297 97.792C618.254 97.1627 618.233 96.704 618.233 96.416V86.72H622.649V94.88C622.649 95.2747 622.67 95.7813 622.713 96.4C622.755 97.008 622.889 97.6213 623.113 98.24C623.337 98.8587 623.699 99.376 624.201 99.792C624.713 100.208 625.433 100.416 626.361 100.416C626.734 100.416 627.134 100.357 627.561 100.24C627.987 100.123 628.387 99.8987 628.761 99.568C629.134 99.2267 629.438 98.7307 629.673 98.08C629.918 97.4187 630.041 96.5547 630.041 95.488L632.537 96.672C632.537 98.0373 632.259 99.3173 631.705 100.512C631.15 101.707 630.313 102.672 629.193 103.408C628.083 104.144 626.681 104.512 624.985 104.512ZM630.585 104V98.272H630.041V86.72H634.425V104H630.585ZM638.896 104V86.72H642.736V90.944L642.32 90.4C642.544 89.8027 642.843 89.2587 643.216 88.768C643.59 88.2773 644.048 87.872 644.592 87.552C645.008 87.296 645.462 87.0987 645.952 86.96C646.443 86.8107 646.95 86.72 647.472 86.688C647.995 86.6453 648.518 86.656 649.04 86.72V90.784C648.56 90.6347 648 90.5867 647.36 90.64C646.731 90.6827 646.16 90.8267 645.648 91.072C645.136 91.3067 644.704 91.6213 644.352 92.016C644 92.4 643.734 92.8587 643.552 93.392C643.371 93.9147 643.28 94.5067 643.28 95.168V104H638.896ZM659.803 104.48C658.033 104.48 656.47 104.101 655.115 103.344C653.771 102.576 652.715 101.525 651.947 100.192C651.19 98.848 650.811 97.312 650.811 95.584C650.811 93.696 651.185 92.0533 651.931 90.656C652.678 89.2587 653.707 88.176 655.019 87.408C656.331 86.6293 657.841 86.24 659.547 86.24C661.361 86.24 662.902 86.6667 664.171 87.52C665.441 88.3733 666.379 89.5733 666.987 91.12C667.595 92.6667 667.809 94.4853 667.627 96.576H663.323V94.976C663.323 93.216 663.041 91.952 662.475 91.184C661.921 90.4053 661.009 90.016 659.739 90.016C658.257 90.016 657.163 90.4693 656.459 91.376C655.766 92.272 655.419 93.6 655.419 95.36C655.419 96.9707 655.766 98.2187 656.459 99.104C657.163 99.9787 658.193 100.416 659.547 100.416C660.401 100.416 661.131 100.229 661.739 99.856C662.347 99.4827 662.811 98.944 663.131 98.24L667.483 99.488C666.833 101.067 665.803 102.293 664.395 103.168C662.998 104.043 661.467 104.48 659.803 104.48ZM654.075 96.576V93.344H665.531V96.576H654.075Z" fill="white"/>
<path d="M150.5 368C150.5 368.828 151.172 369.5 152 369.5H165.5C166.328 369.5 167 368.828 167 368C167 367.172 166.328 366.5 165.5 366.5H153.5V354.5C153.5 353.672 152.828 353 152 353C151.172 353 150.5 353.672 150.5 354.5L150.5 368ZM344.939 172.939L150.939 366.939L153.061 369.061L347.061 175.061L344.939 172.939Z" fill="black"/>
<path d="M117.675 423V404.85L113.61 407.325V403.83L117.675 401.4H120.87V423H117.675ZM126.266 414.795V412.275H135.266V414.795H126.266ZM148.433 423C147.413 423.2 146.413 423.285 145.433 423.255C144.453 423.225 143.578 423.035 142.808 422.685C142.038 422.335 141.458 421.785 141.068 421.035C140.718 420.365 140.528 419.685 140.498 418.995C140.478 418.295 140.468 417.505 140.468 416.625V402.3H143.618V416.475C143.618 417.125 143.623 417.69 143.633 418.17C143.653 418.65 143.758 419.055 143.948 419.385C144.308 420.005 144.878 420.36 145.658 420.45C146.448 420.53 147.373 420.495 148.433 420.345V423ZM137.363 409.32V406.8H148.433V409.32H137.363ZM152.149 404.145V401.1H155.284V404.145H152.149ZM152.149 423V406.8H155.284V423H152.149ZM166.973 423.45C165.363 423.45 163.948 423.1 162.728 422.4C161.518 421.69 160.573 420.705 159.893 419.445C159.223 418.175 158.888 416.705 158.888 415.035C158.888 413.265 159.218 411.73 159.878 410.43C160.548 409.13 161.478 408.125 162.668 407.415C163.858 406.705 165.243 406.35 166.823 406.35C168.473 406.35 169.878 406.735 171.038 407.505C172.198 408.265 173.063 409.35 173.633 410.76C174.213 412.17 174.443 413.845 174.323 415.785H171.188V414.645C171.168 412.765 170.808 411.375 170.108 410.475C169.418 409.575 168.363 409.125 166.943 409.125C165.373 409.125 164.193 409.62 163.403 410.61C162.613 411.6 162.218 413.03 162.218 414.9C162.218 416.68 162.613 418.06 163.403 419.04C164.193 420.01 165.333 420.495 166.823 420.495C167.803 420.495 168.648 420.275 169.358 419.835C170.078 419.385 170.638 418.745 171.038 417.915L174.113 418.89C173.483 420.34 172.528 421.465 171.248 422.265C169.968 423.055 168.543 423.45 166.973 423.45ZM161.198 415.785V413.34H172.763V415.785H161.198ZM177.689 423V406.8H180.479V410.73L180.089 410.22C180.289 409.7 180.549 409.225 180.869 408.795C181.189 408.355 181.559 407.995 181.979 407.715C182.389 407.415 182.844 407.185 183.344 407.025C183.854 406.855 184.374 406.755 184.904 406.725C185.434 406.685 185.944 406.71 186.434 406.8V409.74C185.904 409.6 185.314 409.56 184.664 409.62C184.024 409.68 183.434 409.885 182.894 410.235C182.384 410.565 181.979 410.965 181.679 411.435C181.389 411.905 181.179 412.43 181.049 413.01C180.919 413.58 180.854 414.185 180.854 414.825V423H177.689ZM59.2211 464L66.2411 442.4H70.7561L77.7761 464H74.5211L68.0561 444.29H68.8661L62.4761 464H59.2211ZM62.8661 459.125V456.185H74.1461V459.125H62.8661ZM80.4672 464V447.8H83.2572V451.73L82.8672 451.22C83.0672 450.7 83.3272 450.225 83.6472 449.795C83.9672 449.355 84.3372 448.995 84.7572 448.715C85.1672 448.415 85.6222 448.185 86.1222 448.025C86.6322 447.855 87.1522 447.755 87.6822 447.725C88.2122 447.685 88.7222 447.71 89.2122 447.8V450.74C88.6822 450.6 88.0922 450.56 87.4422 450.62C86.8022 450.68 86.2122 450.885 85.6722 451.235C85.1622 451.565 84.7572 451.965 84.4572 452.435C84.1672 452.905 83.9572 453.43 83.8272 454.01C83.6972 454.58 83.6322 455.185 83.6322 455.825V464H80.4672ZM98.7058 464.45C97.0458 464.45 95.6358 464.08 94.4758 463.34C93.3158 462.6 92.4258 461.585 91.8058 460.295C91.1958 459.005 90.8858 457.54 90.8758 455.9C90.8858 454.23 91.2058 452.755 91.8358 451.475C92.4658 450.185 93.3658 449.175 94.5358 448.445C95.7058 447.715 97.1108 447.35 98.7508 447.35C100.521 447.35 102.031 447.79 103.281 448.67C104.541 449.55 105.371 450.755 105.771 452.285L102.651 453.185C102.341 452.275 101.831 451.57 101.121 451.07C100.421 450.56 99.6158 450.305 98.7058 450.305C97.6758 450.305 96.8308 450.55 96.1708 451.04C95.5108 451.52 95.0208 452.18 94.7008 453.02C94.3808 453.86 94.2158 454.82 94.2058 455.9C94.2158 457.57 94.5958 458.92 95.3458 459.95C96.1058 460.98 97.2258 461.495 98.7058 461.495C99.7158 461.495 100.531 461.265 101.151 460.805C101.781 460.335 102.261 459.665 102.591 458.795L105.771 459.545C105.241 461.125 104.366 462.34 103.146 463.19C101.926 464.03 100.446 464.45 98.7058 464.45ZM120.197 464V456.035C120.197 455.405 120.142 454.76 120.032 454.1C119.932 453.43 119.732 452.81 119.432 452.24C119.142 451.67 118.727 451.21 118.187 450.86C117.657 450.51 116.962 450.335 116.102 450.335C115.542 450.335 115.012 450.43 114.512 450.62C114.012 450.8 113.572 451.095 113.192 451.505C112.822 451.915 112.527 452.455 112.307 453.125C112.097 453.795 111.992 454.61 111.992 455.57L110.042 454.835C110.042 453.365 110.317 452.07 110.867 450.95C111.417 449.82 112.207 448.94 113.237 448.31C114.267 447.68 115.512 447.365 116.972 447.365C118.092 447.365 119.032 447.545 119.792 447.905C120.552 448.265 121.167 448.74 121.637 449.33C122.117 449.91 122.482 450.545 122.732 451.235C122.982 451.925 123.152 452.6 123.242 453.26C123.332 453.92 123.377 454.5 123.377 455V464H120.197ZM108.812 464V442.4H111.617V454.055H111.992V464H108.812ZM127.584 445.145V442.1H130.719V445.145H127.584ZM127.584 464V447.8H130.719V464H127.584ZM144.493 464C143.473 464.2 142.473 464.285 141.493 464.255C140.513 464.225 139.638 464.035 138.868 463.685C138.098 463.335 137.518 462.785 137.128 462.035C136.778 461.365 136.588 460.685 136.558 459.995C136.538 459.295 136.528 458.505 136.528 457.625V443.3H139.678V457.475C139.678 458.125 139.683 458.69 139.693 459.17C139.713 459.65 139.818 460.055 140.008 460.385C140.368 461.005 140.938 461.36 141.718 461.45C142.508 461.53 143.433 461.495 144.493 461.345V464ZM133.423 450.32V447.8H144.493V450.32H133.423ZM154.361 464.45C152.751 464.45 151.336 464.1 150.116 463.4C148.906 462.69 147.961 461.705 147.281 460.445C146.611 459.175 146.276 457.705 146.276 456.035C146.276 454.265 146.606 452.73 147.266 451.43C147.936 450.13 148.866 449.125 150.056 448.415C151.246 447.705 152.631 447.35 154.211 447.35C155.861 447.35 157.266 447.735 158.426 448.505C159.586 449.265 160.451 450.35 161.021 451.76C161.601 453.17 161.831 454.845 161.711 456.785H158.576V455.645C158.556 453.765 158.196 452.375 157.496 451.475C156.806 450.575 155.751 450.125 154.331 450.125C152.761 450.125 151.581 450.62 150.791 451.61C150.001 452.6 149.606 454.03 149.606 455.9C149.606 457.68 150.001 459.06 150.791 460.04C151.581 461.01 152.721 461.495 154.211 461.495C155.191 461.495 156.036 461.275 156.746 460.835C157.466 460.385 158.026 459.745 158.426 458.915L161.501 459.89C160.871 461.34 159.916 462.465 158.636 463.265C157.356 464.055 155.931 464.45 154.361 464.45ZM148.586 456.785V454.34H160.151V456.785H148.586ZM172.007 464.45C170.347 464.45 168.937 464.08 167.777 463.34C166.617 462.6 165.727 461.585 165.107 460.295C164.497 459.005 164.187 457.54 164.177 455.9C164.187 454.23 164.507 452.755 165.137 451.475C165.767 450.185 166.667 449.175 167.837 448.445C169.007 447.715 170.412 447.35 172.052 447.35C173.822 447.35 175.332 447.79 176.582 448.67C177.842 449.55 178.672 450.755 179.072 452.285L175.952 453.185C175.642 452.275 175.132 451.57 174.422 451.07C173.722 450.56 172.917 450.305 172.007 450.305C170.977 450.305 170.132 450.55 169.472 451.04C168.812 451.52 168.322 452.18 168.002 453.02C167.682 453.86 167.517 454.82 167.507 455.9C167.517 457.57 167.897 458.92 168.647 459.95C169.407 460.98 170.527 461.495 172.007 461.495C173.017 461.495 173.832 461.265 174.452 460.805C175.082 460.335 175.562 459.665 175.892 458.795L179.072 459.545C178.542 461.125 177.667 462.34 176.447 463.19C175.227 464.03 173.747 464.45 172.007 464.45ZM191.397 464C190.377 464.2 189.377 464.285 188.397 464.255C187.417 464.225 186.542 464.035 185.772 463.685C185.002 463.335 184.422 462.785 184.032 462.035C183.682 461.365 183.492 460.685 183.462 459.995C183.442 459.295 183.432 458.505 183.432 457.625V443.3H186.582V457.475C186.582 458.125 186.587 458.69 186.597 459.17C186.617 459.65 186.722 460.055 186.912 460.385C187.272 461.005 187.842 461.36 188.622 461.45C189.412 461.53 190.337 461.495 191.397 461.345V464ZM180.327 450.32V447.8H191.397V450.32H180.327ZM200.918 464.435C199.798 464.435 198.858 464.255 198.098 463.895C197.338 463.535 196.718 463.065 196.238 462.485C195.768 461.895 195.408 461.255 195.158 460.565C194.908 459.875 194.738 459.2 194.648 458.54C194.558 457.88 194.513 457.3 194.513 456.8V447.8H197.693V455.765C197.693 456.395 197.743 457.045 197.843 457.715C197.953 458.375 198.153 458.99 198.443 459.56C198.743 460.13 199.158 460.59 199.688 460.94C200.228 461.29 200.928 461.465 201.788 461.465C202.348 461.465 202.878 461.375 203.378 461.195C203.878 461.005 204.313 460.705 204.683 460.295C205.063 459.885 205.358 459.345 205.568 458.675C205.788 458.005 205.898 457.19 205.898 456.23L207.848 456.965C207.848 458.435 207.573 459.735 207.023 460.865C206.473 461.985 205.683 462.86 204.653 463.49C203.623 464.12 202.378 464.435 200.918 464.435ZM206.273 464V459.32H205.898V447.8H209.063V464H206.273ZM213.27 464V447.8H216.06V451.73L215.67 451.22C215.87 450.7 216.13 450.225 216.45 449.795C216.77 449.355 217.14 448.995 217.56 448.715C217.97 448.415 218.425 448.185 218.925 448.025C219.435 447.855 219.955 447.755 220.485 447.725C221.015 447.685 221.525 447.71 222.015 447.8V450.74C221.485 450.6 220.895 450.56 220.245 450.62C219.605 450.68 219.015 450.885 218.475 451.235C217.965 451.565 217.56 451.965 217.26 452.435C216.97 452.905 216.76 453.43 216.63 454.01C216.5 454.58 216.435 455.185 216.435 455.825V464H213.27ZM231.764 464.45C230.154 464.45 228.739 464.1 227.519 463.4C226.309 462.69 225.364 461.705 224.684 460.445C224.014 459.175 223.679 457.705 223.679 456.035C223.679 454.265 224.009 452.73 224.669 451.43C225.339 450.13 226.269 449.125 227.459 448.415C228.649 447.705 230.034 447.35 231.614 447.35C233.264 447.35 234.669 447.735 235.829 448.505C236.989 449.265 237.854 450.35 238.424 451.76C239.004 453.17 239.234 454.845 239.114 456.785H235.979V455.645C235.959 453.765 235.599 452.375 234.899 451.475C234.209 450.575 233.154 450.125 231.734 450.125C230.164 450.125 228.984 450.62 228.194 451.61C227.404 452.6 227.009 454.03 227.009 455.9C227.009 457.68 227.404 459.06 228.194 460.04C228.984 461.01 230.124 461.495 231.614 461.495C232.594 461.495 233.439 461.275 234.149 460.835C234.869 460.385 235.429 459.745 235.829 458.915L238.904 459.89C238.274 461.34 237.319 462.465 236.039 463.265C234.759 464.055 233.334 464.45 231.764 464.45ZM225.989 456.785V454.34H237.554V456.785H225.989Z" fill="black"/>
<path d="M490.834 422.985L490.849 420.195L500.254 411.765C501.014 411.095 501.529 410.455 501.799 409.845C502.079 409.235 502.219 408.625 502.219 408.015C502.219 407.245 502.049 406.555 501.709 405.945C501.369 405.325 500.899 404.835 500.299 404.475C499.699 404.115 499.009 403.935 498.229 403.935C497.429 403.935 496.714 404.125 496.084 404.505C495.464 404.875 494.979 405.37 494.629 405.99C494.279 406.61 494.109 407.28 494.119 408H490.909C490.909 406.6 491.224 405.375 491.854 404.325C492.494 403.265 493.369 402.44 494.479 401.85C495.589 401.25 496.859 400.95 498.289 400.95C499.649 400.95 500.869 401.26 501.949 401.88C503.029 402.49 503.879 403.33 504.499 404.4C505.129 405.47 505.444 406.69 505.444 408.06C505.444 409.05 505.314 409.89 505.054 410.58C504.794 411.27 504.404 411.91 503.884 412.5C503.364 413.09 502.714 413.73 501.934 414.42L494.674 420.9L494.329 420H505.444V422.985H490.834ZM508.741 414.795V412.275H517.741V414.795H508.741ZM530.909 423C529.889 423.2 528.889 423.285 527.909 423.255C526.929 423.225 526.054 423.035 525.284 422.685C524.514 422.335 523.934 421.785 523.544 421.035C523.194 420.365 523.004 419.685 522.974 418.995C522.954 418.295 522.944 417.505 522.944 416.625V402.3H526.094V416.475C526.094 417.125 526.099 417.69 526.109 418.17C526.129 418.65 526.234 419.055 526.424 419.385C526.784 420.005 527.354 420.36 528.134 420.45C528.924 420.53 529.849 420.495 530.909 420.345V423ZM519.839 409.32V406.8H530.909V409.32H519.839ZM534.625 404.145V401.1H537.76V404.145H534.625ZM534.625 423V406.8H537.76V423H534.625ZM549.449 423.45C547.839 423.45 546.424 423.1 545.204 422.4C543.994 421.69 543.049 420.705 542.369 419.445C541.699 418.175 541.364 416.705 541.364 415.035C541.364 413.265 541.694 411.73 542.354 410.43C543.024 409.13 543.954 408.125 545.144 407.415C546.334 406.705 547.719 406.35 549.299 406.35C550.949 406.35 552.354 406.735 553.514 407.505C554.674 408.265 555.539 409.35 556.109 410.76C556.689 412.17 556.919 413.845 556.799 415.785H553.664V414.645C553.644 412.765 553.284 411.375 552.584 410.475C551.894 409.575 550.839 409.125 549.419 409.125C547.849 409.125 546.669 409.62 545.879 410.61C545.089 411.6 544.694 413.03 544.694 414.9C544.694 416.68 545.089 418.06 545.879 419.04C546.669 420.01 547.809 420.495 549.299 420.495C550.279 420.495 551.124 420.275 551.834 419.835C552.554 419.385 553.114 418.745 553.514 417.915L556.589 418.89C555.959 420.34 555.004 421.465 553.724 422.265C552.444 423.055 551.019 423.45 549.449 423.45ZM543.674 415.785V413.34H555.239V415.785H543.674ZM560.164 423V406.8H562.954V410.73L562.564 410.22C562.764 409.7 563.024 409.225 563.344 408.795C563.664 408.355 564.034 407.995 564.454 407.715C564.864 407.415 565.319 407.185 565.819 407.025C566.329 406.855 566.849 406.755 567.379 406.725C567.909 406.685 568.419 406.71 568.909 406.8V409.74C568.379 409.6 567.789 409.56 567.139 409.62C566.499 409.68 565.909 409.885 565.369 410.235C564.859 410.565 564.454 410.965 564.154 411.435C563.864 411.905 563.654 412.43 563.524 413.01C563.394 413.58 563.329 414.185 563.329 414.825V423H560.164ZM439.221 464L446.241 442.4H450.756L457.776 464H454.521L448.056 444.29H448.866L442.476 464H439.221ZM442.866 459.125V456.185H454.146V459.125H442.866ZM460.467 464V447.8H463.257V451.73L462.867 451.22C463.067 450.7 463.327 450.225 463.647 449.795C463.967 449.355 464.337 448.995 464.757 448.715C465.167 448.415 465.622 448.185 466.122 448.025C466.632 447.855 467.152 447.755 467.682 447.725C468.212 447.685 468.722 447.71 469.212 447.8V450.74C468.682 450.6 468.092 450.56 467.442 450.62C466.802 450.68 466.212 450.885 465.672 451.235C465.162 451.565 464.757 451.965 464.457 452.435C464.167 452.905 463.957 453.43 463.827 454.01C463.697 454.58 463.632 455.185 463.632 455.825V464H460.467ZM478.706 464.45C477.046 464.45 475.636 464.08 474.476 463.34C473.316 462.6 472.426 461.585 471.806 460.295C471.196 459.005 470.886 457.54 470.876 455.9C470.886 454.23 471.206 452.755 471.836 451.475C472.466 450.185 473.366 449.175 474.536 448.445C475.706 447.715 477.111 447.35 478.751 447.35C480.521 447.35 482.031 447.79 483.281 448.67C484.541 449.55 485.371 450.755 485.771 452.285L482.651 453.185C482.341 452.275 481.831 451.57 481.121 451.07C480.421 450.56 479.616 450.305 478.706 450.305C477.676 450.305 476.831 450.55 476.171 451.04C475.511 451.52 475.021 452.18 474.701 453.02C474.381 453.86 474.216 454.82 474.206 455.9C474.216 457.57 474.596 458.92 475.346 459.95C476.106 460.98 477.226 461.495 478.706 461.495C479.716 461.495 480.531 461.265 481.151 460.805C481.781 460.335 482.261 459.665 482.591 458.795L485.771 459.545C485.241 461.125 484.366 462.34 483.146 463.19C481.926 464.03 480.446 464.45 478.706 464.45ZM500.197 464V456.035C500.197 455.405 500.142 454.76 500.032 454.1C499.932 453.43 499.732 452.81 499.432 452.24C499.142 451.67 498.727 451.21 498.187 450.86C497.657 450.51 496.962 450.335 496.102 450.335C495.542 450.335 495.012 450.43 494.512 450.62C494.012 450.8 493.572 451.095 493.192 451.505C492.822 451.915 492.527 452.455 492.307 453.125C492.097 453.795 491.992 454.61 491.992 455.57L490.042 454.835C490.042 453.365 490.317 452.07 490.867 450.95C491.417 449.82 492.207 448.94 493.237 448.31C494.267 447.68 495.512 447.365 496.972 447.365C498.092 447.365 499.032 447.545 499.792 447.905C500.552 448.265 501.167 448.74 501.637 449.33C502.117 449.91 502.482 450.545 502.732 451.235C502.982 451.925 503.152 452.6 503.242 453.26C503.332 453.92 503.377 454.5 503.377 455V464H500.197ZM488.812 464V442.4H491.617V454.055H491.992V464H488.812ZM507.584 445.145V442.1H510.719V445.145H507.584ZM507.584 464V447.8H510.719V464H507.584ZM524.493 464C523.473 464.2 522.473 464.285 521.493 464.255C520.513 464.225 519.638 464.035 518.868 463.685C518.098 463.335 517.518 462.785 517.128 462.035C516.778 461.365 516.588 460.685 516.558 459.995C516.538 459.295 516.528 458.505 516.528 457.625V443.3H519.678V457.475C519.678 458.125 519.683 458.69 519.693 459.17C519.713 459.65 519.818 460.055 520.008 460.385C520.368 461.005 520.938 461.36 521.718 461.45C522.508 461.53 523.433 461.495 524.493 461.345V464ZM513.423 450.32V447.8H524.493V450.32H513.423ZM534.361 464.45C532.751 464.45 531.336 464.1 530.116 463.4C528.906 462.69 527.961 461.705 527.281 460.445C526.611 459.175 526.276 457.705 526.276 456.035C526.276 454.265 526.606 452.73 527.266 451.43C527.936 450.13 528.866 449.125 530.056 448.415C531.246 447.705 532.631 447.35 534.211 447.35C535.861 447.35 537.266 447.735 538.426 448.505C539.586 449.265 540.451 450.35 541.021 451.76C541.601 453.17 541.831 454.845 541.711 456.785H538.576V455.645C538.556 453.765 538.196 452.375 537.496 451.475C536.806 450.575 535.751 450.125 534.331 450.125C532.761 450.125 531.581 450.62 530.791 451.61C530.001 452.6 529.606 454.03 529.606 455.9C529.606 457.68 530.001 459.06 530.791 460.04C531.581 461.01 532.721 461.495 534.211 461.495C535.191 461.495 536.036 461.275 536.746 460.835C537.466 460.385 538.026 459.745 538.426 458.915L541.501 459.89C540.871 461.34 539.916 462.465 538.636 463.265C537.356 464.055 535.931 464.45 534.361 464.45ZM528.586 456.785V454.34H540.151V456.785H528.586ZM552.007 464.45C550.347 464.45 548.937 464.08 547.777 463.34C546.617 462.6 545.727 461.585 545.107 460.295C544.497 459.005 544.187 457.54 544.177 455.9C544.187 454.23 544.507 452.755 545.137 451.475C545.767 450.185 546.667 449.175 547.837 448.445C549.007 447.715 550.412 447.35 552.052 447.35C553.822 447.35 555.332 447.79 556.582 448.67C557.842 449.55 558.672 450.755 559.072 452.285L555.952 453.185C555.642 452.275 555.132 451.57 554.422 451.07C553.722 450.56 552.917 450.305 552.007 450.305C550.977 450.305 550.132 450.55 549.472 451.04C548.812 451.52 548.322 452.18 548.002 453.02C547.682 453.86 547.517 454.82 547.507 455.9C547.517 457.57 547.897 458.92 548.647 459.95C549.407 460.98 550.527 461.495 552.007 461.495C553.017 461.495 553.832 461.265 554.452 460.805C555.082 460.335 555.562 459.665 555.892 458.795L559.072 459.545C558.542 461.125 557.667 462.34 556.447 463.19C555.227 464.03 553.747 464.45 552.007 464.45ZM571.397 464C570.377 464.2 569.377 464.285 568.397 464.255C567.417 464.225 566.542 464.035 565.772 463.685C565.002 463.335 564.422 462.785 564.032 462.035C563.682 461.365 563.492 460.685 563.462 459.995C563.442 459.295 563.432 458.505 563.432 457.625V443.3H566.582V457.475C566.582 458.125 566.587 458.69 566.597 459.17C566.617 459.65 566.722 460.055 566.912 460.385C567.272 461.005 567.842 461.36 568.622 461.45C569.412 461.53 570.337 461.495 571.397 461.345V464ZM560.327 450.32V447.8H571.397V450.32H560.327ZM580.918 464.435C579.798 464.435 578.858 464.255 578.098 463.895C577.338 463.535 576.718 463.065 576.238 462.485C575.768 461.895 575.408 461.255 575.158 460.565C574.908 459.875 574.738 459.2 574.648 458.54C574.558 457.88 574.513 457.3 574.513 456.8V447.8H577.693V455.765C577.693 456.395 577.743 457.045 577.843 457.715C577.953 458.375 578.153 458.99 578.443 459.56C578.743 460.13 579.158 460.59 579.688 460.94C580.228 461.29 580.928 461.465 581.788 461.465C582.348 461.465 582.878 461.375 583.378 461.195C583.878 461.005 584.313 460.705 584.683 460.295C585.063 459.885 585.358 459.345 585.568 458.675C585.788 458.005 585.898 457.19 585.898 456.23L587.848 456.965C587.848 458.435 587.573 459.735 587.023 460.865C586.473 461.985 585.683 462.86 584.653 463.49C583.623 464.12 582.378 464.435 580.918 464.435ZM586.273 464V459.32H585.898V447.8H589.063V464H586.273ZM593.27 464V447.8H596.06V451.73L595.67 451.22C595.87 450.7 596.13 450.225 596.45 449.795C596.77 449.355 597.14 448.995 597.56 448.715C597.97 448.415 598.425 448.185 598.925 448.025C599.435 447.855 599.955 447.755 600.485 447.725C601.015 447.685 601.525 447.71 602.015 447.8V450.74C601.485 450.6 600.895 450.56 600.245 450.62C599.605 450.68 599.015 450.885 598.475 451.235C597.965 451.565 597.56 451.965 597.26 452.435C596.97 452.905 596.76 453.43 596.63 454.01C596.5 454.58 596.435 455.185 596.435 455.825V464H593.27ZM611.764 464.45C610.154 464.45 608.739 464.1 607.519 463.4C606.309 462.69 605.364 461.705 604.684 460.445C604.014 459.175 603.679 457.705 603.679 456.035C603.679 454.265 604.009 452.73 604.669 451.43C605.339 450.13 606.269 449.125 607.459 448.415C608.649 447.705 610.034 447.35 611.614 447.35C613.264 447.35 614.669 447.735 615.829 448.505C616.989 449.265 617.854 450.35 618.424 451.76C619.004 453.17 619.234 454.845 619.114 456.785H615.979V455.645C615.959 453.765 615.599 452.375 614.899 451.475C614.209 450.575 613.154 450.125 611.734 450.125C610.164 450.125 608.984 450.62 608.194 451.61C607.404 452.6 607.009 454.03 607.009 455.9C607.009 457.68 607.404 459.06 608.194 460.04C608.984 461.01 610.124 461.495 611.614 461.495C612.594 461.495 613.439 461.275 614.149 460.835C614.869 460.385 615.429 459.745 615.829 458.915L618.904 459.89C618.274 461.34 617.319 462.465 616.039 463.265C614.759 464.055 613.334 464.45 611.764 464.45ZM605.989 456.785V454.34H617.554V456.785H605.989Z" fill="black"/>
<path d="M864.699 412.405C863.629 412.405 862.624 412.205 861.684 411.805C860.744 411.395 859.929 410.815 859.239 410.065C858.559 409.315 858.064 408.43 857.754 407.41L860.784 406.57C861.074 407.5 861.579 408.215 862.299 408.715C863.019 409.205 863.819 409.445 864.699 409.435C865.489 409.425 866.184 409.24 866.784 408.88C867.384 408.52 867.854 408.035 868.194 407.425C868.534 406.805 868.704 406.095 868.704 405.295C868.704 404.095 868.329 403.105 867.579 402.325C866.839 401.545 865.869 401.155 864.669 401.155C864.329 401.155 863.979 401.205 863.619 401.305C863.269 401.405 862.939 401.535 862.629 401.695L861.159 399.22L868.779 392.485L869.109 393.385H858.609V390.4H871.599V393.385L865.269 399.475L865.239 398.455C866.599 398.455 867.779 398.76 868.779 399.37C869.779 399.97 870.549 400.79 871.089 401.83C871.639 402.86 871.914 404.015 871.914 405.295C871.914 406.675 871.589 407.9 870.939 408.97C870.299 410.04 869.434 410.88 868.344 411.49C867.264 412.1 866.049 412.405 864.699 412.405ZM875.522 403.795V401.275H884.522V403.795H875.522ZM897.689 412C896.669 412.2 895.669 412.285 894.689 412.255C893.709 412.225 892.834 412.035 892.064 411.685C891.294 411.335 890.714 410.785 890.324 410.035C889.974 409.365 889.784 408.685 889.754 407.995C889.734 407.295 889.724 406.505 889.724 405.625V391.3H892.874V405.475C892.874 406.125 892.879 406.69 892.889 407.17C892.909 407.65 893.014 408.055 893.204 408.385C893.564 409.005 894.134 409.36 894.914 409.45C895.704 409.53 896.629 409.495 897.689 409.345V412ZM886.619 398.32V395.8H897.689V398.32H886.619ZM901.405 393.145V390.1H904.54V393.145H901.405ZM901.405 412V395.8H904.54V412H901.405ZM916.229 412.45C914.619 412.45 913.204 412.1 911.984 411.4C910.774 410.69 909.829 409.705 909.149 408.445C908.479 407.175 908.144 405.705 908.144 404.035C908.144 402.265 908.474 400.73 909.134 399.43C909.804 398.13 910.734 397.125 911.924 396.415C913.114 395.705 914.499 395.35 916.079 395.35C917.729 395.35 919.134 395.735 920.294 396.505C921.454 397.265 922.319 398.35 922.889 399.76C923.469 401.17 923.699 402.845 923.579 404.785H920.444V403.645C920.424 401.765 920.064 400.375 919.364 399.475C918.674 398.575 917.619 398.125 916.199 398.125C914.629 398.125 913.449 398.62 912.659 399.61C911.869 400.6 911.474 402.03 911.474 403.9C911.474 405.68 911.869 407.06 912.659 408.04C913.449 409.01 914.589 409.495 916.079 409.495C917.059 409.495 917.904 409.275 918.614 408.835C919.334 408.385 919.894 407.745 920.294 406.915L923.369 407.89C922.739 409.34 921.784 410.465 920.504 411.265C919.224 412.055 917.799 412.45 916.229 412.45ZM910.454 404.785V402.34H922.019V404.785H910.454ZM926.945 412V395.8H929.735V399.73L929.345 399.22C929.545 398.7 929.805 398.225 930.125 397.795C930.445 397.355 930.815 396.995 931.235 396.715C931.645 396.415 932.1 396.185 932.6 396.025C933.11 395.855 933.63 395.755 934.16 395.725C934.69 395.685 935.2 395.71 935.69 395.8V398.74C935.16 398.6 934.57 398.56 933.92 398.62C933.28 398.68 932.69 398.885 932.15 399.235C931.64 399.565 931.235 399.965 930.935 400.435C930.645 400.905 930.435 401.43 930.305 402.01C930.175 402.58 930.11 403.185 930.11 403.825V412H926.945ZM806.221 453L813.241 431.4H817.756L824.776 453H821.521L815.056 433.29H815.866L809.476 453H806.221ZM809.866 448.125V445.185H821.146V448.125H809.866ZM827.467 453V436.8H830.257V440.73L829.867 440.22C830.067 439.7 830.327 439.225 830.647 438.795C830.967 438.355 831.337 437.995 831.757 437.715C832.167 437.415 832.622 437.185 833.122 437.025C833.632 436.855 834.152 436.755 834.682 436.725C835.212 436.685 835.722 436.71 836.212 436.8V439.74C835.682 439.6 835.092 439.56 834.442 439.62C833.802 439.68 833.212 439.885 832.672 440.235C832.162 440.565 831.757 440.965 831.457 441.435C831.167 441.905 830.957 442.43 830.827 443.01C830.697 443.58 830.632 444.185 830.632 444.825V453H827.467ZM845.706 453.45C844.046 453.45 842.636 453.08 841.476 452.34C840.316 451.6 839.426 450.585 838.806 449.295C838.196 448.005 837.886 446.54 837.876 444.9C837.886 443.23 838.206 441.755 838.836 440.475C839.466 439.185 840.366 438.175 841.536 437.445C842.706 436.715 844.111 436.35 845.751 436.35C847.521 436.35 849.031 436.79 850.281 437.67C851.541 438.55 852.371 439.755 852.771 441.285L849.651 442.185C849.341 441.275 848.831 440.57 848.121 440.07C847.421 439.56 846.616 439.305 845.706 439.305C844.676 439.305 843.831 439.55 843.171 440.04C842.511 440.52 842.021 441.18 841.701 442.02C841.381 442.86 841.216 443.82 841.206 444.9C841.216 446.57 841.596 447.92 842.346 448.95C843.106 449.98 844.226 450.495 845.706 450.495C846.716 450.495 847.531 450.265 848.151 449.805C848.781 449.335 849.261 448.665 849.591 447.795L852.771 448.545C852.241 450.125 851.366 451.34 850.146 452.19C848.926 453.03 847.446 453.45 845.706 453.45ZM867.197 453V445.035C867.197 444.405 867.142 443.76 867.032 443.1C866.932 442.43 866.732 441.81 866.432 441.24C866.142 440.67 865.727 440.21 865.187 439.86C864.657 439.51 863.962 439.335 863.102 439.335C862.542 439.335 862.012 439.43 861.512 439.62C861.012 439.8 860.572 440.095 860.192 440.505C859.822 440.915 859.527 441.455 859.307 442.125C859.097 442.795 858.992 443.61 858.992 444.57L857.042 443.835C857.042 442.365 857.317 441.07 857.867 439.95C858.417 438.82 859.207 437.94 860.237 437.31C861.267 436.68 862.512 436.365 863.972 436.365C865.092 436.365 866.032 436.545 866.792 436.905C867.552 437.265 868.167 437.74 868.637 438.33C869.117 438.91 869.482 439.545 869.732 440.235C869.982 440.925 870.152 441.6 870.242 442.26C870.332 442.92 870.377 443.5 870.377 444V453H867.197ZM855.812 453V431.4H858.617V443.055H858.992V453H855.812ZM874.584 434.145V431.1H877.719V434.145H874.584ZM874.584 453V436.8H877.719V453H874.584ZM891.493 453C890.473 453.2 889.473 453.285 888.493 453.255C887.513 453.225 886.638 453.035 885.868 452.685C885.098 452.335 884.518 451.785 884.128 451.035C883.778 450.365 883.588 449.685 883.558 448.995C883.538 448.295 883.528 447.505 883.528 446.625V432.3H886.678V446.475C886.678 447.125 886.683 447.69 886.693 448.17C886.713 448.65 886.818 449.055 887.008 449.385C887.368 450.005 887.938 450.36 888.718 450.45C889.508 450.53 890.433 450.495 891.493 450.345V453ZM880.423 439.32V436.8H891.493V439.32H880.423ZM901.361 453.45C899.751 453.45 898.336 453.1 897.116 452.4C895.906 451.69 894.961 450.705 894.281 449.445C893.611 448.175 893.276 446.705 893.276 445.035C893.276 443.265 893.606 441.73 894.266 440.43C894.936 439.13 895.866 438.125 897.056 437.415C898.246 436.705 899.631 436.35 901.211 436.35C902.861 436.35 904.266 436.735 905.426 437.505C906.586 438.265 907.451 439.35 908.021 440.76C908.601 442.17 908.831 443.845 908.711 445.785H905.576V444.645C905.556 442.765 905.196 441.375 904.496 440.475C903.806 439.575 902.751 439.125 901.331 439.125C899.761 439.125 898.581 439.62 897.791 440.61C897.001 441.6 896.606 443.03 896.606 444.9C896.606 446.68 897.001 448.06 897.791 449.04C898.581 450.01 899.721 450.495 901.211 450.495C902.191 450.495 903.036 450.275 903.746 449.835C904.466 449.385 905.026 448.745 905.426 447.915L908.501 448.89C907.871 450.34 906.916 451.465 905.636 452.265C904.356 453.055 902.931 453.45 901.361 453.45ZM895.586 445.785V443.34H907.151V445.785H895.586ZM919.007 453.45C917.347 453.45 915.937 453.08 914.777 452.34C913.617 451.6 912.727 450.585 912.107 449.295C911.497 448.005 911.187 446.54 911.177 444.9C911.187 443.23 911.507 441.755 912.137 440.475C912.767 439.185 913.667 438.175 914.837 437.445C916.007 436.715 917.412 436.35 919.052 436.35C920.822 436.35 922.332 436.79 923.582 437.67C924.842 438.55 925.672 439.755 926.072 441.285L922.952 442.185C922.642 441.275 922.132 440.57 921.422 440.07C920.722 439.56 919.917 439.305 919.007 439.305C917.977 439.305 917.132 439.55 916.472 440.04C915.812 440.52 915.322 441.18 915.002 442.02C914.682 442.86 914.517 443.82 914.507 444.9C914.517 446.57 914.897 447.92 915.647 448.95C916.407 449.98 917.527 450.495 919.007 450.495C920.017 450.495 920.832 450.265 921.452 449.805C922.082 449.335 922.562 448.665 922.892 447.795L926.072 448.545C925.542 450.125 924.667 451.34 923.447 452.19C922.227 453.03 920.747 453.45 919.007 453.45ZM938.397 453C937.377 453.2 936.377 453.285 935.397 453.255C934.417 453.225 933.542 453.035 932.772 452.685C932.002 452.335 931.422 451.785 931.032 451.035C930.682 450.365 930.492 449.685 930.462 448.995C930.442 448.295 930.432 447.505 930.432 446.625V432.3H933.582V446.475C933.582 447.125 933.587 447.69 933.597 448.17C933.617 448.65 933.722 449.055 933.912 449.385C934.272 450.005 934.842 450.36 935.622 450.45C936.412 450.53 937.337 450.495 938.397 450.345V453ZM927.327 439.32V436.8H938.397V439.32H927.327ZM947.918 453.435C946.798 453.435 945.858 453.255 945.098 452.895C944.338 452.535 943.718 452.065 943.238 451.485C942.768 450.895 942.408 450.255 942.158 449.565C941.908 448.875 941.738 448.2 941.648 447.54C941.558 446.88 941.513 446.3 941.513 445.8V436.8H944.693V444.765C944.693 445.395 944.743 446.045 944.843 446.715C944.953 447.375 945.153 447.99 945.443 448.56C945.743 449.13 946.158 449.59 946.688 449.94C947.228 450.29 947.928 450.465 948.788 450.465C949.348 450.465 949.878 450.375 950.378 450.195C950.878 450.005 951.313 449.705 951.683 449.295C952.063 448.885 952.358 448.345 952.568 447.675C952.788 447.005 952.898 446.19 952.898 445.23L954.848 445.965C954.848 447.435 954.573 448.735 954.023 449.865C953.473 450.985 952.683 451.86 951.653 452.49C950.623 453.12 949.378 453.435 947.918 453.435ZM953.273 453V448.32H952.898V436.8H956.063V453H953.273ZM960.27 453V436.8H963.06V440.73L962.67 440.22C962.87 439.7 963.13 439.225 963.45 438.795C963.77 438.355 964.14 437.995 964.56 437.715C964.97 437.415 965.425 437.185 965.925 437.025C966.435 436.855 966.955 436.755 967.485 436.725C968.015 436.685 968.525 436.71 969.015 436.8V439.74C968.485 439.6 967.895 439.56 967.245 439.62C966.605 439.68 966.015 439.885 965.475 440.235C964.965 440.565 964.56 440.965 964.26 441.435C963.97 441.905 963.76 442.43 963.63 443.01C963.5 443.58 963.435 444.185 963.435 444.825V453H960.27ZM978.764 453.45C977.154 453.45 975.739 453.1 974.519 452.4C973.309 451.69 972.364 450.705 971.684 449.445C971.014 448.175 970.679 446.705 970.679 445.035C970.679 443.265 971.009 441.73 971.669 440.43C972.339 439.13 973.269 438.125 974.459 437.415C975.649 436.705 977.034 436.35 978.614 436.35C980.264 436.35 981.669 436.735 982.829 437.505C983.989 438.265 984.854 439.35 985.424 440.76C986.004 442.17 986.234 443.845 986.114 445.785H982.979V444.645C982.959 442.765 982.599 441.375 981.899 440.475C981.209 439.575 980.154 439.125 978.734 439.125C977.164 439.125 975.984 439.62 975.194 440.61C974.404 441.6 974.009 443.03 974.009 444.9C974.009 446.68 974.404 448.06 975.194 449.04C975.984 450.01 977.124 450.495 978.614 450.495C979.594 450.495 980.439 450.275 981.149 449.835C981.869 449.385 982.429 448.745 982.829 447.915L985.904 448.89C985.274 450.34 984.319 451.465 983.039 452.265C981.759 453.055 980.334 453.45 978.764 453.45ZM972.989 445.785V443.34H984.554V445.785H972.989Z" fill="black"/>
<path d="M552.939 381.061C553.525 381.646 554.475 381.646 555.061 381.061L564.607 371.515C565.192 370.929 565.192 369.979 564.607 369.393C564.021 368.808 563.071 368.808 562.485 369.393L554 377.879L545.515 369.393C544.929 368.808 543.979 368.808 543.393 369.393C542.808 369.979 542.808 370.929 543.393 371.515L552.939 381.061ZM552.5 174L552.5 380L555.5 380L555.5 174L552.5 174Z" fill="black"/>
<path d="M842 319.5C842.828 319.5 843.5 318.828 843.5 318V304.5C843.5 303.672 842.828 303 842 303C841.172 303 840.5 303.672 840.5 304.5V316.5H828.5C827.672 316.5 827 317.172 827 318C827 318.828 827.672 319.5 828.5 319.5H842ZM711.939 190.061L840.939 319.061L843.061 316.939L714.061 187.939L711.939 190.061Z" fill="black"/>
</g>
<defs>
<filter id="filter0_d_21_22" x="0" y="0" width="1108" height="566" filterUnits="userSpaceOnUse" color-interpolation-filters="sRGB">
<feFlood flood-opacity="0" result="BackgroundImageFix"/>
<feColorMatrix in="SourceAlpha" type="matrix" values="0 0 0 0 0 0 0 0 0 0 0 0 0 0 0 0 0 0 127 0" result="hardAlpha"/>
<feOffset dy="12"/>
<feGaussianBlur stdDeviation="9"/>
<feComposite in2="hardAlpha" operator="out"/>
<feColorMatrix type="matrix" values="0 0 0 0 0 0 0 0 0 0 0 0 0 0 0 0 0 0 0.05 0"/>
<feBlend mode="normal" in2="BackgroundImageFix" result="effect1_dropShadow_21_22"/>
<feBlend mode="normal" in="SourceGraphic" in2="effect1_dropShadow_21_22" result="shape"/>
</filter>
<clipPath id="clip0_21_22">
<rect width="1072" height="530" fill="white" transform="translate(18 6)"/>
</clipPath>
</defs>
</svg>
