<svg width="1108" height="566" viewBox="0 0 1108 566" fill="none" xmlns="http://www.w3.org/2000/svg">
<g filter="url(#filter0_d_23_6)">
<rect width="1072" height="530" transform="translate(18 6)" fill="white"/>
<line x1="903.354" y1="117.354" x2="805.354" y2="215.354" stroke="black"/>
<line x1="755.297" y1="296.598" x2="877.297" y2="386.598" stroke="black"/>
<line x1="172.354" y1="102.646" x2="288.354" y2="218.646" stroke="black"/>
<line x1="278.354" y1="297.354" x2="178.354" y2="397.354" stroke="black"/>
<rect x="231" y="216" width="646" height="86" rx="9" fill="#FF6701"/>
<path d="M406.24 275V251.96H413.696C413.877 251.96 414.251 251.965 414.816 251.976C415.381 251.987 415.925 252.024 416.448 252.088C418.304 252.312 419.877 252.957 421.168 254.024C422.459 255.091 423.44 256.445 424.112 258.088C424.784 259.731 425.12 261.528 425.12 263.48C425.12 265.432 424.784 267.229 424.112 268.872C423.44 270.515 422.459 271.869 421.168 272.936C419.877 274.003 418.304 274.648 416.448 274.872C415.925 274.936 415.381 274.973 414.816 274.984C414.251 274.995 413.877 275 413.696 275H406.24ZM410.656 270.904H413.696C413.984 270.904 414.373 270.899 414.864 270.888C415.355 270.867 415.797 270.819 416.192 270.744C417.195 270.541 418.011 270.072 418.64 269.336C419.28 268.6 419.749 267.715 420.048 266.68C420.357 265.645 420.512 264.579 420.512 263.48C420.512 262.328 420.352 261.235 420.032 260.2C419.723 259.165 419.248 258.291 418.608 257.576C417.968 256.861 417.163 256.408 416.192 256.216C415.797 256.131 415.355 256.083 414.864 256.072C414.373 256.061 413.984 256.056 413.696 256.056H410.656V270.904ZM428.959 275V251.96H438.175C439.817 251.96 441.145 252.291 442.159 252.952C443.172 253.603 443.913 254.424 444.383 255.416C444.852 256.408 445.087 257.411 445.087 258.424C445.087 259.715 444.793 260.787 444.207 261.64C443.631 262.493 442.836 263.064 441.823 263.352V262.552C443.263 262.851 444.34 263.517 445.055 264.552C445.78 265.587 446.143 266.744 446.143 268.024C446.143 269.4 445.887 270.611 445.375 271.656C444.873 272.701 444.105 273.523 443.071 274.12C442.036 274.707 440.735 275 439.167 275H428.959ZM433.375 270.904H438.719C439.305 270.904 439.828 270.781 440.287 270.536C440.745 270.28 441.103 269.928 441.359 269.48C441.625 269.021 441.759 268.483 441.759 267.864C441.759 267.32 441.647 266.835 441.423 266.408C441.199 265.981 440.857 265.645 440.399 265.4C439.951 265.144 439.391 265.016 438.719 265.016H433.375V270.904ZM433.375 260.952H438.111C438.601 260.952 439.039 260.867 439.423 260.696C439.807 260.525 440.111 260.264 440.335 259.912C440.559 259.549 440.671 259.085 440.671 258.52C440.671 257.816 440.452 257.224 440.015 256.744C439.577 256.264 438.943 256.024 438.111 256.024H433.375V260.952ZM449.334 275V251.96H453.238L460.854 267.256L468.47 251.96H472.374V275H468.31V261.24L461.622 275H460.086L453.398 261.24V275H449.334ZM485.569 275.48C483.862 275.48 482.321 275.181 480.945 274.584C479.58 273.976 478.454 273.112 477.569 271.992C476.694 270.861 476.14 269.517 475.905 267.96L480.449 267.288C480.769 268.611 481.43 269.629 482.433 270.344C483.436 271.059 484.577 271.416 485.857 271.416C486.572 271.416 487.265 271.304 487.937 271.08C488.609 270.856 489.158 270.525 489.585 270.088C490.022 269.651 490.241 269.112 490.241 268.472C490.241 268.237 490.204 268.013 490.129 267.8C490.065 267.576 489.953 267.368 489.793 267.176C489.633 266.984 489.404 266.803 489.105 266.632C488.817 266.461 488.449 266.307 488.001 266.168L482.017 264.408C481.569 264.28 481.046 264.099 480.449 263.864C479.862 263.629 479.292 263.293 478.737 262.856C478.182 262.419 477.718 261.843 477.345 261.128C476.982 260.403 476.801 259.491 476.801 258.392C476.801 256.845 477.19 255.56 477.969 254.536C478.748 253.512 479.788 252.749 481.089 252.248C482.39 251.747 483.83 251.501 485.409 251.512C486.998 251.533 488.417 251.805 489.665 252.328C490.913 252.851 491.958 253.613 492.801 254.616C493.644 255.608 494.252 256.824 494.625 258.264L489.921 259.064C489.75 258.317 489.436 257.688 488.977 257.176C488.518 256.664 487.969 256.275 487.329 256.008C486.7 255.741 486.038 255.597 485.345 255.576C484.662 255.555 484.017 255.651 483.409 255.864C482.812 256.067 482.321 256.365 481.937 256.76C481.564 257.155 481.377 257.624 481.377 258.168C481.377 258.669 481.532 259.08 481.841 259.4C482.15 259.709 482.54 259.96 483.009 260.152C483.478 260.344 483.958 260.504 484.449 260.632L488.449 261.72C489.046 261.88 489.708 262.093 490.433 262.36C491.158 262.616 491.852 262.979 492.513 263.448C493.185 263.907 493.734 264.515 494.161 265.272C494.598 266.029 494.817 266.989 494.817 268.152C494.817 269.389 494.556 270.472 494.033 271.4C493.521 272.317 492.828 273.08 491.953 273.688C491.078 274.285 490.086 274.733 488.977 275.032C487.878 275.331 486.742 275.48 485.569 275.48ZM503.14 275L510.18 251.96H516.676L523.716 275H519.236L512.964 254.68H513.796L507.62 275H503.14ZM507.364 270.2V266.136H519.524V270.2H507.364ZM526.584 275V257.72H530.424V261.944L530.008 261.4C530.232 260.803 530.53 260.259 530.904 259.768C531.277 259.277 531.736 258.872 532.28 258.552C532.696 258.296 533.149 258.099 533.64 257.96C534.13 257.811 534.637 257.72 535.16 257.688C535.682 257.645 536.205 257.656 536.728 257.72V261.784C536.248 261.635 535.688 261.587 535.048 261.64C534.418 261.683 533.848 261.827 533.336 262.072C532.824 262.307 532.392 262.621 532.04 263.016C531.688 263.4 531.421 263.859 531.24 264.392C531.058 264.915 530.968 265.507 530.968 266.168V275H526.584ZM547.075 275.48C545.283 275.48 543.747 275.08 542.467 274.28C541.187 273.48 540.205 272.392 539.523 271.016C538.84 269.64 538.499 268.088 538.499 266.36C538.499 264.611 538.851 263.048 539.555 261.672C540.269 260.296 541.272 259.213 542.563 258.424C543.853 257.635 545.379 257.24 547.139 257.24C549.176 257.24 550.883 257.757 552.259 258.792C553.645 259.816 554.531 261.219 554.915 263L550.563 264.152C550.307 263.256 549.859 262.557 549.219 262.056C548.589 261.555 547.875 261.304 547.075 261.304C546.157 261.304 545.405 261.528 544.819 261.976C544.232 262.413 543.8 263.016 543.523 263.784C543.245 264.541 543.107 265.4 543.107 266.36C543.107 267.864 543.437 269.085 544.099 270.024C544.771 270.952 545.763 271.416 547.075 271.416C548.056 271.416 548.803 271.192 549.315 270.744C549.827 270.296 550.211 269.656 550.467 268.824L554.915 269.752C554.424 271.587 553.496 273 552.131 273.992C550.765 274.984 549.08 275.48 547.075 275.48ZM569.891 275V266.84C569.891 266.445 569.87 265.944 569.827 265.336C569.784 264.717 569.651 264.099 569.427 263.48C569.203 262.861 568.835 262.344 568.323 261.928C567.822 261.512 567.107 261.304 566.179 261.304C565.806 261.304 565.406 261.363 564.979 261.48C564.552 261.597 564.152 261.827 563.779 262.168C563.406 262.499 563.096 262.989 562.851 263.64C562.616 264.291 562.499 265.155 562.499 266.232L560.003 265.048C560.003 263.683 560.28 262.403 560.835 261.208C561.39 260.013 562.222 259.048 563.331 258.312C564.451 257.576 565.859 257.208 567.555 257.208C568.91 257.208 570.014 257.437 570.867 257.896C571.72 258.355 572.382 258.936 572.851 259.64C573.331 260.344 573.672 261.08 573.875 261.848C574.078 262.605 574.2 263.299 574.243 263.928C574.286 264.557 574.307 265.016 574.307 265.304V275H569.891ZM558.083 275V251.96H561.955V263.8H562.499V275H558.083ZM578.779 255.32V251.48H583.131V255.32H578.779ZM578.779 275V257.72H583.131V275H578.779ZM598.296 275C597.101 275.224 595.928 275.32 594.776 275.288C593.634 275.267 592.61 275.069 591.704 274.696C590.808 274.312 590.125 273.699 589.656 272.856C589.229 272.067 589.005 271.267 588.984 270.456C588.962 269.635 588.952 268.707 588.952 267.672V252.92H593.304V267.416C593.304 268.088 593.309 268.696 593.32 269.24C593.341 269.773 593.453 270.2 593.656 270.52C594.04 271.128 594.653 271.459 595.496 271.512C596.338 271.565 597.272 271.523 598.296 271.384V275ZM586.008 261.08V257.72H598.296V261.08H586.008ZM609.241 275.48C607.47 275.48 605.907 275.101 604.553 274.344C603.209 273.576 602.153 272.525 601.385 271.192C600.627 269.848 600.249 268.312 600.249 266.584C600.249 264.696 600.622 263.053 601.369 261.656C602.115 260.259 603.145 259.176 604.457 258.408C605.769 257.629 607.278 257.24 608.985 257.24C610.798 257.24 612.339 257.667 613.609 258.52C614.878 259.373 615.817 260.573 616.425 262.12C617.033 263.667 617.246 265.485 617.065 267.576H612.761V265.976C612.761 264.216 612.478 262.952 611.913 262.184C611.358 261.405 610.446 261.016 609.177 261.016C607.694 261.016 606.601 261.469 605.897 262.376C605.203 263.272 604.857 264.6 604.857 266.36C604.857 267.971 605.203 269.219 605.897 270.104C606.601 270.979 607.63 271.416 608.985 271.416C609.838 271.416 610.569 271.229 611.177 270.856C611.785 270.483 612.249 269.944 612.569 269.24L616.921 270.488C616.27 272.067 615.241 273.293 613.833 274.168C612.435 275.043 610.905 275.48 609.241 275.48ZM603.513 267.576V264.344H614.969V267.576H603.513ZM628.294 275.48C626.502 275.48 624.966 275.08 623.686 274.28C622.406 273.48 621.424 272.392 620.742 271.016C620.059 269.64 619.718 268.088 619.718 266.36C619.718 264.611 620.07 263.048 620.774 261.672C621.488 260.296 622.491 259.213 623.782 258.424C625.072 257.635 626.598 257.24 628.358 257.24C630.395 257.24 632.102 257.757 633.478 258.792C634.864 259.816 635.75 261.219 636.134 263L631.782 264.152C631.526 263.256 631.078 262.557 630.438 262.056C629.808 261.555 629.094 261.304 628.294 261.304C627.376 261.304 626.624 261.528 626.038 261.976C625.451 262.413 625.019 263.016 624.742 263.784C624.464 264.541 624.326 265.4 624.326 266.36C624.326 267.864 624.656 269.085 625.318 270.024C625.99 270.952 626.982 271.416 628.294 271.416C629.275 271.416 630.022 271.192 630.534 270.744C631.046 270.296 631.43 269.656 631.686 268.824L636.134 269.752C635.643 271.587 634.715 273 633.35 273.992C631.984 274.984 630.299 275.48 628.294 275.48ZM649.702 275C648.507 275.224 647.334 275.32 646.182 275.288C645.04 275.267 644.016 275.069 643.11 274.696C642.214 274.312 641.531 273.699 641.062 272.856C640.635 272.067 640.411 271.267 640.39 270.456C640.368 269.635 640.358 268.707 640.358 267.672V252.92H644.71V267.416C644.71 268.088 644.715 268.696 644.726 269.24C644.747 269.773 644.859 270.2 645.062 270.52C645.446 271.128 646.059 271.459 646.902 271.512C647.744 271.565 648.678 271.523 649.702 271.384V275ZM637.414 261.08V257.72H649.702V261.08H637.414ZM659.985 275.512C658.63 275.512 657.526 275.283 656.673 274.824C655.819 274.365 655.153 273.784 654.673 273.08C654.203 272.376 653.867 271.645 653.664 270.888C653.462 270.12 653.339 269.421 653.297 268.792C653.254 268.163 653.233 267.704 653.233 267.416V257.72H657.649V265.88C657.649 266.275 657.67 266.781 657.713 267.4C657.755 268.008 657.889 268.621 658.113 269.24C658.337 269.859 658.699 270.376 659.201 270.792C659.713 271.208 660.433 271.416 661.361 271.416C661.734 271.416 662.134 271.357 662.561 271.24C662.987 271.123 663.387 270.899 663.761 270.568C664.134 270.227 664.438 269.731 664.673 269.08C664.918 268.419 665.041 267.555 665.041 266.488L667.537 267.672C667.537 269.037 667.259 270.317 666.705 271.512C666.15 272.707 665.313 273.672 664.193 274.408C663.083 275.144 661.681 275.512 659.985 275.512ZM665.585 275V269.272H665.041V257.72H669.425V275H665.585ZM673.896 275V257.72H677.736V261.944L677.32 261.4C677.544 260.803 677.843 260.259 678.216 259.768C678.59 259.277 679.048 258.872 679.592 258.552C680.008 258.296 680.462 258.099 680.952 257.96C681.443 257.811 681.95 257.72 682.472 257.688C682.995 257.645 683.518 257.656 684.04 257.72V261.784C683.56 261.635 683 261.587 682.36 261.64C681.731 261.683 681.16 261.827 680.648 262.072C680.136 262.307 679.704 262.621 679.352 263.016C679 263.4 678.734 263.859 678.552 264.392C678.371 264.915 678.28 265.507 678.28 266.168V275H673.896ZM694.803 275.48C693.033 275.48 691.47 275.101 690.115 274.344C688.771 273.576 687.715 272.525 686.947 271.192C686.19 269.848 685.811 268.312 685.811 266.584C685.811 264.696 686.185 263.053 686.931 261.656C687.678 260.259 688.707 259.176 690.019 258.408C691.331 257.629 692.841 257.24 694.547 257.24C696.361 257.24 697.902 257.667 699.171 258.52C700.441 259.373 701.379 260.573 701.987 262.12C702.595 263.667 702.809 265.485 702.627 267.576H698.323V265.976C698.323 264.216 698.041 262.952 697.475 262.184C696.921 261.405 696.009 261.016 694.739 261.016C693.257 261.016 692.163 261.469 691.459 262.376C690.766 263.272 690.419 264.6 690.419 266.36C690.419 267.971 690.766 269.219 691.459 270.104C692.163 270.979 693.193 271.416 694.547 271.416C695.401 271.416 696.131 271.229 696.739 270.856C697.347 270.483 697.811 269.944 698.131 269.24L702.483 270.488C701.833 272.067 700.803 273.293 699.395 274.168C697.998 275.043 696.467 275.48 694.803 275.48ZM689.075 267.576V264.344H700.531V267.576H689.075Z" fill="white"/>
<circle cx="160" cy="437" r="49" fill="white" stroke="#202249" stroke-width="2"/>
<path d="M955 429C955 455.966 930.7 478 900.5 478C870.3 478 846 455.966 846 429C846 402.034 870.3 380 900.5 380C930.7 380 955 402.034 955 429Z" fill="white" stroke="#202249" stroke-width="2"/>
<path d="M1020 78.5C1020 93.7072 1011.6 107.559 997.856 117.645C984.11 127.731 965.073 134 944 134C922.927 134 903.89 127.731 890.144 117.645C876.398 107.559 868 93.7072 868 78.5C868 63.2928 876.398 49.4411 890.144 39.3547C903.89 29.2687 922.927 23 944 23C965.073 23 984.11 29.2687 997.856 39.3547C1011.6 49.4411 1020 63.2928 1020 78.5Z" fill="white" stroke="#202249" stroke-width="2"/>
<path d="M177 85C177 98.4132 169.608 110.64 157.491 119.55C145.374 128.459 128.587 134 110 134C91.4132 134 74.6259 128.459 62.5091 119.55C50.3919 110.64 43 98.4132 43 85C43 71.5868 50.3919 59.3601 62.5091 50.4503C74.6259 41.5409 91.4132 36 110 36C128.587 36 145.374 41.5409 157.491 50.4503C169.608 59.3601 177 71.5868 177 85Z" fill="white" stroke="#202249" stroke-width="2"/>
<path d="M83.1263 95V87.035C83.1263 86.405 83.0713 85.76 82.9613 85.1C82.8613 84.43 82.6613 83.81 82.3613 83.24C82.0713 82.67 81.6563 82.21 81.1163 81.86C80.5863 81.51 79.8913 81.335 79.0312 81.335C78.4713 81.335 77.9413 81.43 77.4413 81.62C76.9413 81.8 76.5013 82.095 76.1213 82.505C75.7513 82.915 75.4563 83.455 75.2363 84.125C75.0263 84.795 74.9213 85.61 74.9213 86.57L72.9713 85.835C72.9713 84.365 73.2463 83.07 73.7963 81.95C74.3463 80.82 75.1363 79.94 76.1663 79.31C77.1963 78.68 78.4413 78.365 79.9013 78.365C81.0213 78.365 81.9613 78.545 82.7213 78.905C83.4813 79.265 84.0963 79.74 84.5663 80.33C85.0463 80.91 85.4113 81.545 85.6613 82.235C85.9113 82.925 86.0813 83.6 86.1713 84.26C86.2613 84.92 86.3063 85.5 86.3063 86V95H83.1263ZM71.7413 95V78.8H74.5463V83.48H74.9213V95H71.7413ZM94.7883 95.45C93.5883 95.45 92.5833 95.23 91.7733 94.79C90.9633 94.34 90.3483 93.75 89.9283 93.02C89.5183 92.28 89.3133 91.47 89.3133 90.59C89.3133 89.77 89.4583 89.05 89.7483 88.43C90.0383 87.81 90.4683 87.285 91.0383 86.855C91.6083 86.415 92.3083 86.06 93.1383 85.79C93.8583 85.58 94.6733 85.395 95.5833 85.235C96.4933 85.075 97.4483 84.925 98.4483 84.785C99.4583 84.645 100.458 84.505 101.448 84.365L100.308 84.995C100.328 83.725 100.058 82.785 99.4983 82.175C98.9483 81.555 97.9983 81.245 96.6483 81.245C95.7983 81.245 95.0183 81.445 94.3083 81.845C93.5983 82.235 93.1033 82.885 92.8233 83.795L89.8983 82.895C90.2983 81.505 91.0583 80.4 92.1783 79.58C93.3083 78.76 94.8083 78.35 96.6783 78.35C98.1283 78.35 99.3883 78.6 100.458 79.1C101.538 79.59 102.328 80.37 102.828 81.44C103.088 81.97 103.248 82.53 103.308 83.12C103.368 83.71 103.398 84.345 103.398 85.025V95H100.623V91.295L101.163 91.775C100.493 93.015 99.6383 93.94 98.5983 94.55C97.5683 95.15 96.2983 95.45 94.7883 95.45ZM95.3433 92.885C96.2333 92.885 96.9983 92.73 97.6383 92.42C98.2783 92.1 98.7933 91.695 99.1833 91.205C99.5733 90.715 99.8283 90.205 99.9483 89.675C100.118 89.195 100.213 88.655 100.233 88.055C100.263 87.455 100.278 86.975 100.278 86.615L101.298 86.99C100.308 87.14 99.4083 87.275 98.5983 87.395C97.7883 87.515 97.0533 87.635 96.3933 87.755C95.7433 87.865 95.1633 88 94.6533 88.16C94.2233 88.31 93.8383 88.49 93.4983 88.7C93.1683 88.91 92.9033 89.165 92.7033 89.465C92.5133 89.765 92.4183 90.13 92.4183 90.56C92.4183 90.98 92.5233 91.37 92.7333 91.73C92.9433 92.08 93.2633 92.36 93.6933 92.57C94.1233 92.78 94.6733 92.885 95.3433 92.885ZM126.703 95L126.718 84.905C126.718 83.735 126.418 82.825 125.818 82.175C125.218 81.515 124.428 81.185 123.448 81.185C122.848 81.185 122.298 81.325 121.798 81.605C121.308 81.875 120.908 82.285 120.598 82.835C120.298 83.375 120.148 84.055 120.148 84.875L118.633 84.11C118.613 82.97 118.853 81.97 119.353 81.11C119.863 80.25 120.553 79.585 121.423 79.115C122.293 78.635 123.268 78.395 124.348 78.395C126.098 78.395 127.453 78.92 128.413 79.97C129.373 81.02 129.853 82.415 129.853 84.155L129.838 95H126.703ZM107.278 95V78.8H110.068V83.48H110.428V95H107.278ZM116.998 95L117.013 84.965C117.013 83.785 116.713 82.86 116.113 82.19C115.523 81.52 114.728 81.185 113.728 81.185C112.738 81.185 111.938 81.525 111.328 82.205C110.728 82.885 110.428 83.775 110.428 84.875L108.928 83.915C108.928 82.855 109.183 81.91 109.693 81.08C110.203 80.25 110.893 79.595 111.763 79.115C112.633 78.635 113.618 78.395 114.718 78.395C115.868 78.395 116.848 78.64 117.658 79.13C118.468 79.61 119.083 80.285 119.503 81.155C119.933 82.025 120.148 83.035 120.148 84.185L120.133 95H116.998ZM140.728 95.45C139.118 95.45 137.703 95.1 136.483 94.4C135.273 93.69 134.328 92.705 133.648 91.445C132.978 90.175 132.643 88.705 132.643 87.035C132.643 85.265 132.973 83.73 133.633 82.43C134.303 81.13 135.233 80.125 136.423 79.415C137.613 78.705 138.998 78.35 140.578 78.35C142.228 78.35 143.633 78.735 144.793 79.505C145.953 80.265 146.818 81.35 147.388 82.76C147.968 84.17 148.198 85.845 148.078 87.785H144.943V86.645C144.923 84.765 144.563 83.375 143.863 82.475C143.173 81.575 142.118 81.125 140.698 81.125C139.128 81.125 137.948 81.62 137.158 82.61C136.368 83.6 135.973 85.03 135.973 86.9C135.973 88.68 136.368 90.06 137.158 91.04C137.948 92.01 139.088 92.495 140.578 92.495C141.558 92.495 142.403 92.275 143.113 91.835C143.833 91.385 144.393 90.745 144.793 89.915L147.868 90.89C147.238 92.34 146.283 93.465 145.003 94.265C143.723 95.055 142.298 95.45 140.728 95.45ZM134.953 87.785V85.34H146.518V87.785H134.953Z" fill="black"/>
<path d="M885.287 86L892.307 64.4H896.822L903.842 86H900.587L894.122 66.29H894.932L888.542 86H885.287ZM888.932 81.125V78.185H900.212V81.125H888.932ZM912.968 86.45C911.458 86.45 910.153 86.075 909.053 85.325C907.963 84.575 907.118 83.555 906.518 82.265C905.928 80.965 905.633 79.505 905.633 77.885C905.633 76.255 905.933 74.8 906.533 73.52C907.133 72.23 907.983 71.215 909.083 70.475C910.193 69.725 911.508 69.35 913.028 69.35C914.558 69.35 915.843 69.725 916.883 70.475C917.933 71.215 918.723 72.23 919.253 73.52C919.793 74.81 920.063 76.265 920.063 77.885C920.063 79.505 919.793 80.96 919.253 82.25C918.713 83.54 917.918 84.565 916.868 85.325C915.818 86.075 914.518 86.45 912.968 86.45ZM913.403 83.615C914.433 83.615 915.273 83.37 915.923 82.88C916.573 82.39 917.048 81.715 917.348 80.855C917.648 79.995 917.798 79.005 917.798 77.885C917.798 76.765 917.643 75.775 917.333 74.915C917.033 74.055 916.563 73.385 915.923 72.905C915.293 72.425 914.488 72.185 913.508 72.185C912.468 72.185 911.613 72.44 910.943 72.95C910.273 73.46 909.773 74.145 909.443 75.005C909.123 75.865 908.963 76.825 908.963 77.885C908.963 78.955 909.123 79.925 909.443 80.795C909.773 81.655 910.263 82.34 910.913 82.85C911.573 83.36 912.403 83.615 913.403 83.615ZM917.798 86V74.345H917.438V64.4H920.588V86H917.798ZM931.22 86.45C929.71 86.45 928.405 86.075 927.305 85.325C926.215 84.575 925.37 83.555 924.77 82.265C924.18 80.965 923.885 79.505 923.885 77.885C923.885 76.255 924.185 74.8 924.785 73.52C925.385 72.23 926.235 71.215 927.335 70.475C928.445 69.725 929.76 69.35 931.28 69.35C932.81 69.35 934.095 69.725 935.135 70.475C936.185 71.215 936.975 72.23 937.505 73.52C938.045 74.81 938.315 76.265 938.315 77.885C938.315 79.505 938.045 80.96 937.505 82.25C936.965 83.54 936.17 84.565 935.12 85.325C934.07 86.075 932.77 86.45 931.22 86.45ZM931.655 83.615C932.685 83.615 933.525 83.37 934.175 82.88C934.825 82.39 935.3 81.715 935.6 80.855C935.9 79.995 936.05 79.005 936.05 77.885C936.05 76.765 935.895 75.775 935.585 74.915C935.285 74.055 934.815 73.385 934.175 72.905C933.545 72.425 932.74 72.185 931.76 72.185C930.72 72.185 929.865 72.44 929.195 72.95C928.525 73.46 928.025 74.145 927.695 75.005C927.375 75.865 927.215 76.825 927.215 77.885C927.215 78.955 927.375 79.925 927.695 80.795C928.025 81.655 928.515 82.34 929.165 82.85C929.825 83.36 930.655 83.615 931.655 83.615ZM936.05 86V74.345H935.69V64.4H938.84V86H936.05ZM943.037 86V69.8H945.827V73.73L945.437 73.22C945.637 72.7 945.897 72.225 946.217 71.795C946.537 71.355 946.907 70.995 947.327 70.715C947.737 70.415 948.192 70.185 948.692 70.025C949.202 69.855 949.722 69.755 950.252 69.725C950.782 69.685 951.292 69.71 951.782 69.8V72.74C951.252 72.6 950.662 72.56 950.012 72.62C949.372 72.68 948.782 72.885 948.242 73.235C947.732 73.565 947.327 73.965 947.027 74.435C946.737 74.905 946.527 75.43 946.397 76.01C946.267 76.58 946.202 77.185 946.202 77.825V86H943.037ZM961.53 86.45C959.92 86.45 958.505 86.1 957.285 85.4C956.075 84.69 955.13 83.705 954.45 82.445C953.78 81.175 953.445 79.705 953.445 78.035C953.445 76.265 953.775 74.73 954.435 73.43C955.105 72.13 956.035 71.125 957.225 70.415C958.415 69.705 959.8 69.35 961.38 69.35C963.03 69.35 964.435 69.735 965.595 70.505C966.755 71.265 967.62 72.35 968.19 73.76C968.77 75.17 969 76.845 968.88 78.785H965.745V77.645C965.725 75.765 965.365 74.375 964.665 73.475C963.975 72.575 962.92 72.125 961.5 72.125C959.93 72.125 958.75 72.62 957.96 73.61C957.17 74.6 956.775 76.03 956.775 77.9C956.775 79.68 957.17 81.06 957.96 82.04C958.75 83.01 959.89 83.495 961.38 83.495C962.36 83.495 963.205 83.275 963.915 82.835C964.635 82.385 965.195 81.745 965.595 80.915L968.67 81.89C968.04 83.34 967.085 84.465 965.805 85.265C964.525 86.055 963.1 86.45 961.53 86.45ZM955.755 78.785V76.34H967.32V78.785H955.755ZM978.441 86.435C976.471 86.435 974.866 86 973.626 85.13C972.386 84.26 971.626 83.035 971.346 81.455L974.556 80.96C974.756 81.8 975.216 82.465 975.936 82.955C976.666 83.435 977.571 83.675 978.651 83.675C979.631 83.675 980.396 83.475 980.946 83.075C981.506 82.675 981.786 82.125 981.786 81.425C981.786 81.015 981.686 80.685 981.486 80.435C981.296 80.175 980.891 79.93 980.271 79.7C979.651 79.47 978.706 79.185 977.436 78.845C976.046 78.485 974.941 78.1 974.121 77.69C973.311 77.27 972.731 76.785 972.381 76.235C972.041 75.675 971.871 75 971.871 74.21C971.871 73.23 972.131 72.375 972.651 71.645C973.171 70.915 973.901 70.35 974.841 69.95C975.791 69.55 976.901 69.35 978.171 69.35C979.411 69.35 980.516 69.545 981.486 69.935C982.456 70.325 983.241 70.88 983.841 71.6C984.441 72.31 984.801 73.145 984.921 74.105L981.711 74.69C981.601 73.91 981.236 73.295 980.616 72.845C979.996 72.395 979.191 72.15 978.201 72.11C977.251 72.07 976.481 72.23 975.891 72.59C975.301 72.94 975.006 73.425 975.006 74.045C975.006 74.405 975.116 74.71 975.336 74.96C975.566 75.21 976.006 75.45 976.656 75.68C977.306 75.91 978.266 76.185 979.536 76.505C980.896 76.855 981.976 77.245 982.776 77.675C983.576 78.095 984.146 78.6 984.486 79.19C984.836 79.77 985.011 80.475 985.011 81.305C985.011 82.905 984.426 84.16 983.256 85.07C982.096 85.98 980.491 86.435 978.441 86.435ZM994.524 86.435C992.554 86.435 990.949 86 989.709 85.13C988.469 84.26 987.709 83.035 987.429 81.455L990.639 80.96C990.839 81.8 991.299 82.465 992.019 82.955C992.749 83.435 993.654 83.675 994.734 83.675C995.714 83.675 996.479 83.475 997.029 83.075C997.589 82.675 997.869 82.125 997.869 81.425C997.869 81.015 997.769 80.685 997.569 80.435C997.379 80.175 996.974 79.93 996.354 79.7C995.734 79.47 994.789 79.185 993.519 78.845C992.129 78.485 991.024 78.1 990.204 77.69C989.394 77.27 988.814 76.785 988.464 76.235C988.124 75.675 987.954 75 987.954 74.21C987.954 73.23 988.214 72.375 988.734 71.645C989.254 70.915 989.984 70.35 990.924 69.95C991.874 69.55 992.984 69.35 994.254 69.35C995.494 69.35 996.599 69.545 997.569 69.935C998.539 70.325 999.324 70.88 999.924 71.6C1000.52 72.31 1000.88 73.145 1001 74.105L997.794 74.69C997.684 73.91 997.319 73.295 996.699 72.845C996.079 72.395 995.274 72.15 994.284 72.11C993.334 72.07 992.564 72.23 991.974 72.59C991.384 72.94 991.089 73.425 991.089 74.045C991.089 74.405 991.199 74.71 991.419 74.96C991.649 75.21 992.089 75.45 992.739 75.68C993.389 75.91 994.349 76.185 995.619 76.505C996.979 76.855 998.059 77.245 998.859 77.675C999.659 78.095 1000.23 78.6 1000.57 79.19C1000.92 79.77 1001.09 80.475 1001.09 81.305C1001.09 82.905 1000.51 84.16 999.339 85.07C998.179 85.98 996.574 86.435 994.524 86.435Z" fill="black"/>
<path d="M873.151 438L880.171 416.4H884.686L891.706 438H888.451L881.986 418.29H882.796L876.406 438H873.151ZM876.796 433.125V430.185H888.076V433.125H876.796ZM901.072 445.65C900.202 445.65 899.357 445.515 898.537 445.245C897.727 444.975 896.987 444.575 896.317 444.045C895.647 443.525 895.092 442.88 894.652 442.11L897.547 440.64C897.897 441.33 898.397 441.835 899.047 442.155C899.697 442.475 900.382 442.635 901.102 442.635C901.992 442.635 902.752 442.475 903.382 442.155C904.012 441.845 904.487 441.375 904.807 440.745C905.137 440.115 905.297 439.335 905.287 438.405V433.875H905.662V421.8H908.437V438.435C908.437 438.865 908.422 439.275 908.392 439.665C908.362 440.055 908.307 440.445 908.227 440.835C907.997 441.925 907.557 442.825 906.907 443.535C906.267 444.245 905.447 444.775 904.447 445.125C903.457 445.475 902.332 445.65 901.072 445.65ZM900.832 438.45C899.322 438.45 898.017 438.075 896.917 437.325C895.827 436.575 894.982 435.555 894.382 434.265C893.792 432.965 893.497 431.505 893.497 429.885C893.497 428.255 893.797 426.8 894.397 425.52C894.997 424.23 895.847 423.215 896.947 422.475C898.057 421.725 899.372 421.35 900.892 421.35C902.422 421.35 903.707 421.725 904.747 422.475C905.797 423.215 906.587 424.23 907.117 425.52C907.657 426.81 907.927 428.265 907.927 429.885C907.927 431.505 907.657 432.96 907.117 434.25C906.577 435.54 905.782 436.565 904.732 437.325C903.682 438.075 902.382 438.45 900.832 438.45ZM901.267 435.615C902.297 435.615 903.137 435.37 903.787 434.88C904.437 434.39 904.912 433.715 905.212 432.855C905.512 431.995 905.662 431.005 905.662 429.885C905.662 428.765 905.507 427.775 905.197 426.915C904.897 426.055 904.427 425.385 903.787 424.905C903.157 424.425 902.352 424.185 901.372 424.185C900.332 424.185 899.477 424.44 898.807 424.95C898.137 425.46 897.637 426.145 897.307 427.005C896.987 427.865 896.827 428.825 896.827 429.885C896.827 430.955 896.987 431.925 897.307 432.795C897.637 433.655 898.127 434.34 898.777 434.85C899.437 435.36 900.267 435.615 901.267 435.615ZM919.834 438.45C918.224 438.45 916.809 438.1 915.589 437.4C914.379 436.69 913.434 435.705 912.754 434.445C912.084 433.175 911.749 431.705 911.749 430.035C911.749 428.265 912.079 426.73 912.739 425.43C913.409 424.13 914.339 423.125 915.529 422.415C916.719 421.705 918.104 421.35 919.684 421.35C921.334 421.35 922.739 421.735 923.899 422.505C925.059 423.265 925.924 424.35 926.494 425.76C927.074 427.17 927.304 428.845 927.184 430.785H924.049V429.645C924.029 427.765 923.669 426.375 922.969 425.475C922.279 424.575 921.224 424.125 919.804 424.125C918.234 424.125 917.054 424.62 916.264 425.61C915.474 426.6 915.079 428.03 915.079 429.9C915.079 431.68 915.474 433.06 916.264 434.04C917.054 435.01 918.194 435.495 919.684 435.495C920.664 435.495 921.509 435.275 922.219 434.835C922.939 434.385 923.499 433.745 923.899 432.915L926.974 433.89C926.344 435.34 925.389 436.465 924.109 437.265C922.829 438.055 921.404 438.45 919.834 438.45ZM914.059 430.785V428.34H925.624V430.785H914.059Z" fill="black"/>
<path d="M116.497 445V423.4H125.227C125.437 423.4 125.697 423.41 126.007 423.43C126.317 423.44 126.612 423.47 126.892 423.52C128.092 423.71 129.092 424.12 129.892 424.75C130.702 425.38 131.307 426.175 131.707 427.135C132.107 428.095 132.307 429.155 132.307 430.315C132.307 432.035 131.867 433.52 130.987 434.77C130.107 436.01 128.787 436.785 127.027 437.095L125.752 437.245H119.632V445H116.497ZM129.127 445L124.867 436.21L128.032 435.4L132.712 445H129.127ZM119.632 434.275H125.107C125.307 434.275 125.527 434.265 125.767 434.245C126.017 434.225 126.252 434.19 126.472 434.14C127.112 433.99 127.627 433.715 128.017 433.315C128.407 432.905 128.687 432.435 128.857 431.905C129.027 431.375 129.112 430.845 129.112 430.315C129.112 429.785 129.027 429.26 128.857 428.74C128.687 428.21 128.407 427.745 128.017 427.345C127.627 426.935 127.112 426.655 126.472 426.505C126.252 426.445 126.017 426.405 125.767 426.385C125.527 426.365 125.307 426.355 125.107 426.355H119.632V434.275ZM143.044 445.45C141.424 445.45 140.019 445.085 138.829 444.355C137.639 443.625 136.719 442.62 136.069 441.34C135.429 440.05 135.109 438.565 135.109 436.885C135.109 435.195 135.439 433.71 136.099 432.43C136.759 431.14 137.684 430.14 138.874 429.43C140.064 428.71 141.454 428.35 143.044 428.35C144.664 428.35 146.069 428.715 147.259 429.445C148.449 430.175 149.369 431.18 150.019 432.46C150.669 433.74 150.994 435.215 150.994 436.885C150.994 438.575 150.664 440.065 150.004 441.355C149.354 442.635 148.434 443.64 147.244 444.37C146.054 445.09 144.654 445.45 143.044 445.45ZM143.044 442.495C144.594 442.495 145.749 441.975 146.509 440.935C147.279 439.885 147.664 438.535 147.664 436.885C147.664 435.195 147.274 433.845 146.494 432.835C145.724 431.815 144.574 431.305 143.044 431.305C141.994 431.305 141.129 431.545 140.449 432.025C139.769 432.495 139.264 433.15 138.934 433.99C138.604 434.82 138.439 435.785 138.439 436.885C138.439 438.585 138.829 439.945 139.609 440.965C140.389 441.985 141.534 442.495 143.044 442.495ZM154.59 445V422.95H157.725V445H154.59ZM162.53 445V422.95H165.665V445H162.53ZM181.539 445V437.035C181.539 436.405 181.484 435.76 181.374 435.1C181.274 434.43 181.074 433.81 180.774 433.24C180.484 432.67 180.069 432.21 179.529 431.86C178.999 431.51 178.304 431.335 177.444 431.335C176.884 431.335 176.354 431.43 175.854 431.62C175.354 431.8 174.914 432.095 174.534 432.505C174.164 432.915 173.869 433.455 173.649 434.125C173.439 434.795 173.334 435.61 173.334 436.57L171.384 435.835C171.384 434.365 171.659 433.07 172.209 431.95C172.759 430.82 173.549 429.94 174.579 429.31C175.609 428.68 176.854 428.365 178.314 428.365C179.434 428.365 180.374 428.545 181.134 428.905C181.894 429.265 182.509 429.74 182.979 430.33C183.459 430.91 183.824 431.545 184.074 432.235C184.324 432.925 184.494 433.6 184.584 434.26C184.674 434.92 184.719 435.5 184.719 436V445H181.539ZM170.154 445V428.8H172.959V433.48H173.334V445H170.154ZM195.456 445.45C193.836 445.45 192.431 445.085 191.241 444.355C190.051 443.625 189.131 442.62 188.481 441.34C187.841 440.05 187.521 438.565 187.521 436.885C187.521 435.195 187.851 433.71 188.511 432.43C189.171 431.14 190.096 430.14 191.286 429.43C192.476 428.71 193.866 428.35 195.456 428.35C197.076 428.35 198.481 428.715 199.671 429.445C200.861 430.175 201.781 431.18 202.431 432.46C203.081 433.74 203.406 435.215 203.406 436.885C203.406 438.575 203.076 440.065 202.416 441.355C201.766 442.635 200.846 443.64 199.656 444.37C198.466 445.09 197.066 445.45 195.456 445.45ZM195.456 442.495C197.006 442.495 198.161 441.975 198.921 440.935C199.691 439.885 200.076 438.535 200.076 436.885C200.076 435.195 199.686 433.845 198.906 432.835C198.136 431.815 196.986 431.305 195.456 431.305C194.406 431.305 193.541 431.545 192.861 432.025C192.181 432.495 191.676 433.15 191.346 433.99C191.016 434.82 190.851 435.785 190.851 436.885C190.851 438.585 191.241 439.945 192.021 440.965C192.801 441.985 193.946 442.495 195.456 442.495Z" fill="black"/>
</g>
<defs>
<filter id="filter0_d_23_6" x="0" y="0" width="1108" height="566" filterUnits="userSpaceOnUse" color-interpolation-filters="sRGB">
<feFlood flood-opacity="0" result="BackgroundImageFix"/>
<feColorMatrix in="SourceAlpha" type="matrix" values="0 0 0 0 0 0 0 0 0 0 0 0 0 0 0 0 0 0 127 0" result="hardAlpha"/>
<feOffset dy="12"/>
<feGaussianBlur stdDeviation="9"/>
<feComposite in2="hardAlpha" operator="out"/>
<feColorMatrix type="matrix" values="0 0 0 0 0 0 0 0 0 0 0 0 0 0 0 0 0 0 0.05 0"/>
<feBlend mode="normal" in2="BackgroundImageFix" result="effect1_dropShadow_23_6"/>
<feBlend mode="normal" in="SourceGraphic" in2="effect1_dropShadow_23_6" result="shape"/>
</filter>
</defs>
</svg>
