<svg width="56" height="56" viewBox="0 0 56 56" fill="none" xmlns="http://www.w3.org/2000/svg">
<path d="M54.8744 25.3127C54.5374 25.0578 54.1475 24.8821 53.7336 24.7985C53.3197 24.715 52.8924 24.7258 52.4832 24.83C51.8046 25.0201 51.1045 25.1219 50.4 25.1331C45.7688 25.1331 42.0001 21.3561 41.9917 16.8888C42.0057 16.7934 42.0365 16.5128 42.0393 16.4174C42.0575 15.9787 41.9726 15.5419 41.7914 15.1421C41.6101 14.7424 41.3376 14.391 40.9959 14.1162C40.6542 13.8414 40.2527 13.6511 39.8241 13.5605C39.3954 13.4698 38.9514 13.4815 38.5281 13.5945C37.8351 13.7902 37.1199 13.8958 36.4001 13.9088C31.7689 13.9088 28.0001 10.1318 28.0001 5.49054C28.0001 4.88162 28.0869 4.24464 28.2773 3.48138C28.3851 3.04572 28.387 2.59049 28.2829 2.15393C28.1788 1.71736 27.9718 1.31219 27.6791 0.972419C27.3864 0.632651 27.0167 0.368203 26.6009 0.201273C26.1852 0.0343423 25.7355 -0.0301986 25.2897 0.0130667C18.3554 0.660767 11.9142 3.88621 7.23385 9.05455C2.55347 14.2229 -0.0270414 20.9598 0.000213715 27.9392C0.000213715 43.4119 12.561 56 28.0001 56C43.4392 56 56 43.4119 56 27.9392C56 27.8017 55.9916 27.667 55.9804 27.4902C55.971 27.0673 55.8667 26.652 55.6752 26.275C55.4837 25.8981 55.21 25.5692 54.8744 25.3127ZM18.2001 11.1027C19.314 11.1027 20.3823 11.5462 21.17 12.3355C21.9576 13.1249 22.4001 14.1955 22.4001 15.3118C22.4001 16.4282 21.9576 17.4988 21.17 18.2881C20.3823 19.0775 19.314 19.5209 18.2001 19.5209C17.0862 19.5209 16.018 19.0775 15.2303 18.2881C14.4427 17.4988 14.0002 16.4282 14.0002 15.3118C14.0002 14.1955 14.4427 13.1249 15.2303 12.3355C16.018 11.5462 17.0862 11.1027 18.2001 11.1027ZM12.6002 33.5514C12.0486 33.5514 11.5025 33.4425 10.9929 33.231C10.4833 33.0194 10.0203 32.7094 9.63033 32.3185C9.24032 31.9277 8.93095 31.4637 8.71989 30.953C8.50882 30.4423 8.40018 29.895 8.40018 29.3422C8.40018 28.7895 8.50882 28.2421 8.71989 27.7315C8.93095 27.2208 9.24032 26.7568 9.63033 26.3659C10.0203 25.9751 10.4833 25.665 10.9929 25.4535C11.5025 25.242 12.0486 25.1331 12.6002 25.1331C13.7141 25.1331 14.7824 25.5766 15.57 26.3659C16.3577 27.1553 16.8001 28.2259 16.8001 29.3422C16.8001 30.4586 16.3577 31.5292 15.57 32.3185C14.7824 33.1079 13.7141 33.5513 12.6002 33.5514ZM21.0001 44.7757C19.8862 44.7757 18.8179 44.3322 18.0303 43.5428C17.2426 42.7535 16.8001 41.6829 16.8001 40.5666C16.8001 39.4502 17.2426 38.3796 18.0303 37.5903C18.8179 36.8009 19.8862 36.3574 21.0001 36.3574C22.114 36.3574 23.1823 36.8009 23.97 37.5903C24.7576 38.3796 25.2001 39.4502 25.2001 40.5666C25.2001 41.6829 24.7576 42.7535 23.97 43.5428C23.1823 44.3322 22.114 44.7757 21.0001 44.7757ZM28.0001 26.5361C28.0001 25.4198 28.4426 24.3492 29.2303 23.5598C30.0179 22.7705 31.0862 22.327 32.2001 22.327C33.314 22.327 34.3823 22.7705 35.1699 23.5598C35.9576 24.3492 36.4001 25.4198 36.4001 26.5361C36.4001 27.6525 35.9576 28.7231 35.1699 29.5124C34.3823 30.3018 33.314 30.7453 32.2001 30.7453C31.0862 30.7453 30.0179 30.3018 29.2303 29.5124C28.4426 28.7231 28.0001 27.6525 28.0001 26.5361ZM37.8001 44.7757C36.6862 44.7757 35.6179 44.3322 34.8302 43.5428C34.0426 42.7535 33.6001 41.6829 33.6001 40.5666C33.6001 39.4502 34.0426 38.3796 34.8302 37.5903C35.6179 36.8009 36.6862 36.3574 37.8001 36.3574C38.914 36.3574 39.9823 36.8009 40.7699 37.5903C41.5576 38.3796 42.0001 39.4502 42.0001 40.5666C42.0001 41.6829 41.5576 42.7535 40.7699 43.5428C39.9823 44.3322 38.914 44.7757 37.8001 44.7757Z" fill="#202249"/>
</svg>
